<svg width="206" height="40" viewBox="0 0 206 40" fill="none" xmlns="http://www.w3.org/2000/svg">
<path d="M24.8066 2.02388C27.8054 6.64848 35.6248 17.8275 36.8382 19.6547C36.8951 19.7405 36.8948 19.8439 36.8418 19.9334L33.4494 25.6645C33.3288 25.8683 33.0057 25.8827 32.8711 25.6904L17.0928 3.1333C16.9653 2.95109 17.0985 2.70983 17.3416 2.68275L24.4844 1.88653C24.6165 1.87181 24.7411 1.92284 24.8066 2.02388Z" fill="#1A1A1C"/>
<path d="M26.7282 2.06754C23.4703 6.64219 15.1392 17.8336 13.8406 19.6326C13.781 19.7152 13.7759 19.8161 13.8222 19.9067L16.7568 25.6546C16.8647 25.8661 17.1902 25.8946 17.3351 25.7053L34.4862 3.29029C34.6244 3.10975 34.4965 2.86008 34.2504 2.8297L27.0471 1.94068C26.9189 1.92486 26.7967 1.97142 26.7282 2.06754Z" fill="#1A1A1C"/>
<path d="M8.18522 37.8877C10.3973 34.8004 15.3307 28.0879 16.278 26.7781C16.3397 26.6929 16.3437 26.588 16.2932 26.4956L13.1008 20.6562C12.9872 20.4483 12.6635 20.4264 12.5232 20.617L0.0537339 37.5594C-0.0904743 37.7554 0.0728234 38.0186 0.338587 38.0186H7.91155C8.02384 38.0186 8.12543 37.9712 8.18522 37.8877Z" fill="#1A1A1C"/>
<path d="M32.9635 27.5167C29.1705 27.551 18.955 27.4945 17.196 27.4997C17.0822 27.5 16.9822 27.5499 16.9206 27.6317L9.59485 37.3584C9.45039 37.5502 9.6097 37.8027 9.87638 37.8046L40.2083 38.0182C40.4757 38.02 40.6403 37.7688 40.4988 37.575L33.2493 27.6528C33.1868 27.5671 33.0817 27.5156 32.9635 27.5167Z" fill="#1A1A1C"/>
<path d="M41.8129 37.8507C39.6673 34.7259 34.8781 27.9292 33.9594 26.6039C33.8997 26.5178 33.8979 26.4129 33.9504 26.3214L37.2671 20.5383C37.3852 20.3323 37.7096 20.3156 37.8458 20.5085L49.9497 37.6617C50.0896 37.86 49.9203 38.1204 49.6544 38.1159L42.0834 37.986C41.9712 37.984 41.8708 37.935 41.8129 37.8507Z" fill="#1A1A1C"/>
<path d="M62.352 33L70.576 9.16H76.208L84.432 33H79.696L78 27.88H68.784L67.056 33H62.352ZM70.032 24.04H76.752L72.784 12.168H74L70.032 24.04ZM85.1333 33L92.9413 21L85.1973 9.16H90.1893L96.5253 18.856H94.2213L100.525 9.16H105.517L97.8053 21L105.581 33H100.589L94.2213 23.176H96.5253L90.1253 33H85.1333ZM119.017 33.384C117.267 33.384 115.635 33.0747 114.121 32.456C112.606 31.8373 111.283 30.9733 110.153 29.864C109.022 28.7547 108.137 27.4533 107.497 25.96C106.878 24.4453 106.569 22.8133 106.569 21.064C106.569 19.2933 106.878 17.6613 107.497 16.168C108.115 14.6747 108.99 13.3733 110.121 12.264C111.251 11.1547 112.574 10.3013 114.089 9.704C115.603 9.08533 117.246 8.776 119.017 8.776C120.787 8.776 122.43 9.08533 123.945 9.704C125.459 10.3227 126.782 11.1867 127.913 12.296C129.043 13.384 129.918 14.6747 130.537 16.168C131.177 17.6613 131.497 19.2933 131.497 21.064C131.497 22.8133 131.177 24.4453 130.537 25.96C129.897 27.4533 129.011 28.7547 127.881 29.864C126.75 30.9733 125.427 31.8373 123.913 32.456C122.419 33.0747 120.787 33.384 119.017 33.384ZM119.017 29.416C120.19 29.416 121.267 29.2133 122.249 28.808C123.23 28.3813 124.083 27.7947 124.809 27.048C125.555 26.3013 126.121 25.416 126.505 24.392C126.91 23.368 127.113 22.2587 127.113 21.064C127.113 19.8693 126.91 18.7707 126.505 17.768C126.121 16.744 125.555 15.8587 124.809 15.112C124.083 14.344 123.23 13.7573 122.249 13.352C121.267 12.9467 120.19 12.744 119.017 12.744C117.865 12.744 116.798 12.9467 115.817 13.352C114.835 13.7573 113.971 14.344 113.225 15.112C112.499 15.8587 111.934 16.744 111.529 17.768C111.123 18.7707 110.921 19.8693 110.921 21.064C110.921 22.2587 111.123 23.368 111.529 24.392C111.934 25.416 112.499 26.3013 113.225 27.048C113.971 27.7947 114.835 28.3813 115.817 28.808C116.798 29.2133 117.865 29.416 119.017 29.416ZM135.367 33V9.16H138.759L151.878 26.824L150.119 27.176V9.16H154.471V33H151.047L138.119 15.208L139.719 14.856V33H135.367ZM173.957 33.384C172.122 33.384 170.49 33 169.061 32.232C167.653 31.464 166.543 30.408 165.733 29.064C164.922 27.72 164.517 26.1947 164.517 24.488V9.16H168.869V24.264C168.869 25.2453 169.082 26.1307 169.509 26.92C169.957 27.7093 170.565 28.328 171.333 28.776C172.101 29.2027 172.975 29.416 173.957 29.416C174.959 29.416 175.834 29.2027 176.581 28.776C177.349 28.328 177.946 27.7093 178.373 26.92C178.821 26.1307 179.045 25.2453 179.045 24.264V9.16H183.397V24.488C183.397 26.1947 182.991 27.72 182.181 29.064C181.37 30.408 180.25 31.464 178.821 32.232C177.413 33 175.791 33.384 173.957 33.384ZM187.742 33V9.16H192.094V33H187.742Z" fill="#1A1A1C"/>
</svg>
