<svg width="24" height="24" viewBox="0 0 24 24" fill="none" xmlns="http://www.w3.org/2000/svg">
<path d="M15.9971 10.046L11.9741 14.0228L7.99721 9.9998" stroke="#3E454E" stroke-width="1.5" stroke-linecap="round" stroke-linejoin="round"/>
<path d="M11.9741 14.0227L12.0261 5.02285" stroke="#3E454E" stroke-width="1.5" stroke-linecap="round"/>
<path d="M5 14.7729C5 14.3587 5.33579 14.0229 5.75 14.0229C6.16421 14.0229 6.5 14.3587 6.5 14.7729V16.0229C6.5 16.2991 6.72386 16.5229 7 16.5229H12H17C17.2761 16.5229 17.5 16.2991 17.5 16.0229V14.7729C17.5 14.3587 17.8358 14.0229 18.25 14.0229C18.6642 14.0229 19 14.3587 19 14.7729V16.0229C19 17.1275 18.1046 18.0229 17 18.0229H7C5.89543 18.0229 5 17.1275 5 16.0229V14.7729Z" fill="#3E454E"/>
</svg>
