<svg width="350" height="250" viewBox="0 0 350 250" fill="none" xmlns="http://www.w3.org/2000/svg">
<rect width="350" height="250" fill="white"/>
<circle cx="43" cy="44" r="9.25" stroke="#3E454E" stroke-width="1.5"/>
<path d="M39 45L40.7699 46.4159C41.1808 46.7447 41.7762 46.6987 42.1318 46.3108L47 41" stroke="#3E454E" stroke-width="1.5" stroke-linecap="round"/>
<path fill-rule="evenodd" clip-rule="evenodd" d="M73 54C78.5228 54 83 49.5228 83 44C83 38.4772 78.5228 34 73 34C67.4772 34 63 38.4772 63 44C63 49.5228 67.4772 54 73 54ZM77.5529 41.5068C77.8327 41.2015 77.8121 40.727 77.5068 40.4471C77.2014 40.1672 76.727 40.1879 76.4471 40.4932L71.5789 45.804C71.49 45.901 71.3412 45.9125 71.2384 45.8303L69.4685 44.4143C69.1451 44.1556 68.6731 44.208 68.4143 44.5315C68.1556 44.8549 68.208 45.3269 68.5315 45.5857L70.3014 47.0016C71.0205 47.5769 72.0624 47.4964 72.6846 46.8176L77.5529 41.5068Z" fill="#3E454E"/>
<circle cx="43" cy="110" r="9.25" stroke="#3E454E" stroke-width="1.5"/>
<circle cx="43" cy="113.698" r="0.75" fill="#3E454E" stroke="#3E454E" stroke-width="0.5"/>
<rect x="42.5" y="106.5" width="1" height="5.13953" rx="0.5" fill="#D9D9D9" stroke="#3E454E"/>
<circle cx="73" cy="110" r="9.25" fill="#3E454E" stroke="#3E454E" stroke-width="1.5"/>
<circle cx="73" cy="113.698" r="0.75" fill="#ECECEC" stroke="#ECECEC" stroke-width="0.5"/>
<rect x="72.5" y="106.5" width="1" height="5.13953" rx="0.5" fill="#ECECEC" stroke="#ECECEC"/>
<circle cx="163" cy="41" r="9.25" stroke="#3E454E" stroke-width="1.5"/>
<circle cx="163" cy="36.9998" r="0.75" transform="rotate(-180 163 36.9998)" fill="#3E454E" stroke="#3E454E" stroke-width="0.5"/>
<rect x="163.5" y="45.4998" width="1" height="6" rx="0.5" transform="rotate(-180 163.5 45.4998)" fill="#D9D9D9" stroke="#3E454E"/>
<mask id="path-16-inside-1_645_1704" fill="white">
<path fill-rule="evenodd" clip-rule="evenodd" d="M206 41C206 46.5228 201.523 51 196 51C190.477 51 186 46.5228 186 41C186 35.4772 190.477 31 196 31C201.523 31 206 35.4772 206 41ZM195 37C195 36.4477 195.448 36 196 36C196.552 36 197 36.4477 197 37C197 37.5523 196.552 38 196 38C195.448 38 195 37.5523 195 37ZM196 46C196.552 46 197 45.5523 197 45V40C197 39.4477 196.552 39 196 39C195.448 39 195 39.4477 195 40V45C195 45.5523 195.448 46 196 46Z"/>
</mask>
<path fill-rule="evenodd" clip-rule="evenodd" d="M206 41C206 46.5228 201.523 51 196 51C190.477 51 186 46.5228 186 41C186 35.4772 190.477 31 196 31C201.523 31 206 35.4772 206 41ZM195 37C195 36.4477 195.448 36 196 36C196.552 36 197 36.4477 197 37C197 37.5523 196.552 38 196 38C195.448 38 195 37.5523 195 37ZM196 46C196.552 46 197 45.5523 197 45V40C197 39.4477 196.552 39 196 39C195.448 39 195 39.4477 195 40V45C195 45.5523 195.448 46 196 46Z" fill="#3E454E"/>
<path d="M196 52.5C202.351 52.5 207.5 47.3513 207.5 41H204.5C204.5 45.6944 200.694 49.5 196 49.5V52.5ZM184.5 41C184.5 47.3513 189.649 52.5 196 52.5V49.5C191.306 49.5 187.5 45.6944 187.5 41H184.5ZM196 29.5C189.649 29.5 184.5 34.6487 184.5 41H187.5C187.5 36.3056 191.306 32.5 196 32.5V29.5ZM207.5 41C207.5 34.6487 202.351 29.5 196 29.5V32.5C200.694 32.5 204.5 36.3056 204.5 41H207.5ZM196 34.5C194.619 34.5 193.5 35.6193 193.5 37H196.5C196.5 37.2761 196.276 37.5 196 37.5V34.5ZM198.5 37C198.5 35.6193 197.381 34.5 196 34.5V37.5C195.724 37.5 195.5 37.2761 195.5 37H198.5ZM196 39.5C197.381 39.5 198.5 38.3807 198.5 37H195.5C195.5 36.7239 195.724 36.5 196 36.5V39.5ZM193.5 37C193.5 38.3807 194.619 39.5 196 39.5V36.5C196.276 36.5 196.5 36.7239 196.5 37H193.5ZM195.5 45C195.5 44.7239 195.724 44.5 196 44.5V47.5C197.381 47.5 198.5 46.3807 198.5 45H195.5ZM195.5 40V45H198.5V40H195.5ZM196 40.5C195.724 40.5 195.5 40.2761 195.5 40H198.5C198.5 38.6193 197.381 37.5 196 37.5V40.5ZM196.5 40C196.5 40.2761 196.276 40.5 196 40.5V37.5C194.619 37.5 193.5 38.6193 193.5 40H196.5ZM196.5 45V40H193.5V45H196.5ZM196 44.5C196.276 44.5 196.5 44.7239 196.5 45H193.5C193.5 46.3807 194.619 47.5 196 47.5V44.5Z" fill="#3E454E" mask="url(#path-16-inside-1_645_1704)"/>
<path fill-rule="evenodd" clip-rule="evenodd" d="M208 110C208 115.523 203.523 120 198 120C192.477 120 188 115.523 188 110C188 104.477 192.477 100 198 100C203.523 100 208 104.477 208 110ZM193.47 105.47C193.763 105.177 194.237 105.177 194.53 105.47L198 108.939L201.47 105.47C201.763 105.177 202.237 105.177 202.53 105.47C202.823 105.763 202.823 106.237 202.53 106.53L199.061 110L202.53 113.47C202.823 113.763 202.823 114.237 202.53 114.53C202.237 114.823 201.763 114.823 201.47 114.53L198 111.061L194.53 114.53C194.237 114.823 193.763 114.823 193.47 114.53C193.177 114.237 193.177 113.763 193.47 113.47L196.939 110L193.47 106.53C193.177 106.237 193.177 105.763 193.47 105.47Z" fill="#3E454E"/>
<circle cx="163" cy="110" r="9.25" stroke="#3E454E" stroke-width="1.5"/>
<path d="M159 106L167 114" stroke="#3E454E" stroke-width="1.5" stroke-linecap="round"/>
<path d="M167 106L159 114" stroke="#3E454E" stroke-width="1.5" stroke-linecap="round"/>
<circle cx="42.1689" cy="174.169" r="6.27027" stroke="#3E454E" stroke-width="1.2973"/>
<path d="M46.9257 178.926L51.25 183.25" stroke="#3E454E" stroke-width="1.2973" stroke-linecap="round"/>
<path d="M79.9257 178.926L84.25 183.25" stroke="#3E454E" stroke-width="1.2973" stroke-linecap="round"/>
<path d="M82.0878 174.169C82.0878 177.99 78.9901 181.088 75.1689 181.088C71.3477 181.088 68.25 177.99 68.25 174.169C68.25 170.348 71.3477 167.25 75.1689 167.25C78.9901 167.25 82.0878 170.348 82.0878 174.169Z" fill="#3E454E"/>
</svg>
