<svg width="650" height="26" viewBox="0 0 650 26" fill="none" xmlns="http://www.w3.org/2000/svg">
<line y1="12" x2="280" y2="12" stroke="#B2B6BC" stroke-width="2"/>
<mask id="path-2-outside-1_1448_2" maskUnits="userSpaceOnUse" x="301" y="5" width="48" height="17" fill="black">
<rect fill="white" x="301" y="5" width="48" height="17"/>
<path d="M302.494 20V6.59H304.258V18.38H310.144V20H302.494ZM314.773 20.216C314.137 20.216 313.573 20.102 313.081 19.874C312.601 19.634 312.223 19.31 311.947 18.902C311.671 18.482 311.533 18.002 311.533 17.462C311.533 16.946 311.641 16.484 311.857 16.076C312.085 15.656 312.433 15.302 312.901 15.014C313.381 14.726 313.981 14.522 314.701 14.402L318.301 13.808V15.212L315.079 15.752C314.455 15.86 313.999 16.058 313.711 16.346C313.435 16.634 313.297 16.988 313.297 17.408C313.297 17.804 313.453 18.134 313.765 18.398C314.089 18.662 314.491 18.794 314.971 18.794C315.583 18.794 316.111 18.668 316.555 18.416C317.011 18.152 317.365 17.798 317.617 17.354C317.881 16.91 318.013 16.418 318.013 15.878V13.412C318.013 12.884 317.815 12.458 317.419 12.134C317.035 11.798 316.525 11.63 315.889 11.63C315.337 11.63 314.845 11.774 314.413 12.062C313.993 12.338 313.681 12.71 313.477 13.178L312.019 12.422C312.199 11.978 312.487 11.582 312.883 11.234C313.279 10.874 313.741 10.592 314.269 10.388C314.797 10.184 315.349 10.082 315.925 10.082C316.669 10.082 317.323 10.226 317.887 10.514C318.451 10.79 318.889 11.18 319.201 11.684C319.525 12.176 319.687 12.752 319.687 13.412V20H318.049V18.164L318.355 18.272C318.151 18.656 317.875 18.992 317.527 19.28C317.179 19.568 316.771 19.796 316.303 19.964C315.835 20.132 315.325 20.216 314.773 20.216ZM327.304 20.216C326.524 20.216 325.81 20.042 325.162 19.694C324.526 19.346 324.034 18.854 323.686 18.218L323.92 17.93V20H322.282V6.374H323.956V12.386L323.704 11.972C324.064 11.396 324.556 10.94 325.18 10.604C325.804 10.256 326.518 10.082 327.322 10.082C328.234 10.082 329.05 10.304 329.77 10.748C330.502 11.192 331.078 11.798 331.498 12.566C331.918 13.322 332.128 14.186 332.128 15.158C332.128 16.106 331.918 16.964 331.498 17.732C331.078 18.5 330.502 19.106 329.77 19.55C329.05 19.994 328.228 20.216 327.304 20.216ZM327.178 18.596C327.79 18.596 328.336 18.446 328.816 18.146C329.296 17.846 329.668 17.438 329.932 16.922C330.208 16.394 330.346 15.806 330.346 15.158C330.346 14.486 330.208 13.898 329.932 13.394C329.668 12.878 329.296 12.47 328.816 12.17C328.336 11.858 327.79 11.702 327.178 11.702C326.566 11.702 326.014 11.852 325.522 12.152C325.042 12.452 324.658 12.866 324.37 13.394C324.094 13.91 323.956 14.498 323.956 15.158C323.956 15.806 324.094 16.394 324.37 16.922C324.658 17.438 325.042 17.846 325.522 18.146C326.014 18.446 326.566 18.596 327.178 18.596ZM338.787 20.216C337.851 20.216 337.017 19.994 336.285 19.55C335.553 19.106 334.977 18.5 334.557 17.732C334.137 16.952 333.927 16.082 333.927 15.122C333.927 14.15 334.131 13.286 334.539 12.53C334.959 11.774 335.523 11.18 336.231 10.748C336.951 10.304 337.755 10.082 338.643 10.082C339.363 10.082 339.999 10.214 340.551 10.478C341.115 10.73 341.589 11.078 341.973 11.522C342.369 11.954 342.669 12.452 342.873 13.016C343.089 13.568 343.197 14.144 343.197 14.744C343.197 14.876 343.185 15.026 343.161 15.194C343.149 15.35 343.131 15.5 343.107 15.644H335.151V14.204H342.135L341.343 14.852C341.451 14.228 341.391 13.67 341.163 13.178C340.935 12.686 340.599 12.296 340.155 12.008C339.711 11.72 339.207 11.576 338.643 11.576C338.079 11.576 337.563 11.72 337.095 12.008C336.627 12.296 336.261 12.71 335.997 13.25C335.745 13.778 335.643 14.408 335.691 15.14C335.643 15.848 335.751 16.472 336.015 17.012C336.291 17.54 336.675 17.954 337.167 18.254C337.671 18.542 338.217 18.686 338.805 18.686C339.453 18.686 339.999 18.536 340.443 18.236C340.887 17.936 341.247 17.552 341.523 17.084L342.927 17.804C342.735 18.248 342.435 18.656 342.027 19.028C341.631 19.388 341.157 19.676 340.605 19.892C340.065 20.108 339.459 20.216 338.787 20.216ZM345.38 20V6.374H347.054V20H345.38Z"/>
</mask>
<path d="M302.494 20V6.59H304.258V18.38H310.144V20H302.494ZM314.773 20.216C314.137 20.216 313.573 20.102 313.081 19.874C312.601 19.634 312.223 19.31 311.947 18.902C311.671 18.482 311.533 18.002 311.533 17.462C311.533 16.946 311.641 16.484 311.857 16.076C312.085 15.656 312.433 15.302 312.901 15.014C313.381 14.726 313.981 14.522 314.701 14.402L318.301 13.808V15.212L315.079 15.752C314.455 15.86 313.999 16.058 313.711 16.346C313.435 16.634 313.297 16.988 313.297 17.408C313.297 17.804 313.453 18.134 313.765 18.398C314.089 18.662 314.491 18.794 314.971 18.794C315.583 18.794 316.111 18.668 316.555 18.416C317.011 18.152 317.365 17.798 317.617 17.354C317.881 16.91 318.013 16.418 318.013 15.878V13.412C318.013 12.884 317.815 12.458 317.419 12.134C317.035 11.798 316.525 11.63 315.889 11.63C315.337 11.63 314.845 11.774 314.413 12.062C313.993 12.338 313.681 12.71 313.477 13.178L312.019 12.422C312.199 11.978 312.487 11.582 312.883 11.234C313.279 10.874 313.741 10.592 314.269 10.388C314.797 10.184 315.349 10.082 315.925 10.082C316.669 10.082 317.323 10.226 317.887 10.514C318.451 10.79 318.889 11.18 319.201 11.684C319.525 12.176 319.687 12.752 319.687 13.412V20H318.049V18.164L318.355 18.272C318.151 18.656 317.875 18.992 317.527 19.28C317.179 19.568 316.771 19.796 316.303 19.964C315.835 20.132 315.325 20.216 314.773 20.216ZM327.304 20.216C326.524 20.216 325.81 20.042 325.162 19.694C324.526 19.346 324.034 18.854 323.686 18.218L323.92 17.93V20H322.282V6.374H323.956V12.386L323.704 11.972C324.064 11.396 324.556 10.94 325.18 10.604C325.804 10.256 326.518 10.082 327.322 10.082C328.234 10.082 329.05 10.304 329.77 10.748C330.502 11.192 331.078 11.798 331.498 12.566C331.918 13.322 332.128 14.186 332.128 15.158C332.128 16.106 331.918 16.964 331.498 17.732C331.078 18.5 330.502 19.106 329.77 19.55C329.05 19.994 328.228 20.216 327.304 20.216ZM327.178 18.596C327.79 18.596 328.336 18.446 328.816 18.146C329.296 17.846 329.668 17.438 329.932 16.922C330.208 16.394 330.346 15.806 330.346 15.158C330.346 14.486 330.208 13.898 329.932 13.394C329.668 12.878 329.296 12.47 328.816 12.17C328.336 11.858 327.79 11.702 327.178 11.702C326.566 11.702 326.014 11.852 325.522 12.152C325.042 12.452 324.658 12.866 324.37 13.394C324.094 13.91 323.956 14.498 323.956 15.158C323.956 15.806 324.094 16.394 324.37 16.922C324.658 17.438 325.042 17.846 325.522 18.146C326.014 18.446 326.566 18.596 327.178 18.596ZM338.787 20.216C337.851 20.216 337.017 19.994 336.285 19.55C335.553 19.106 334.977 18.5 334.557 17.732C334.137 16.952 333.927 16.082 333.927 15.122C333.927 14.15 334.131 13.286 334.539 12.53C334.959 11.774 335.523 11.18 336.231 10.748C336.951 10.304 337.755 10.082 338.643 10.082C339.363 10.082 339.999 10.214 340.551 10.478C341.115 10.73 341.589 11.078 341.973 11.522C342.369 11.954 342.669 12.452 342.873 13.016C343.089 13.568 343.197 14.144 343.197 14.744C343.197 14.876 343.185 15.026 343.161 15.194C343.149 15.35 343.131 15.5 343.107 15.644H335.151V14.204H342.135L341.343 14.852C341.451 14.228 341.391 13.67 341.163 13.178C340.935 12.686 340.599 12.296 340.155 12.008C339.711 11.72 339.207 11.576 338.643 11.576C338.079 11.576 337.563 11.72 337.095 12.008C336.627 12.296 336.261 12.71 335.997 13.25C335.745 13.778 335.643 14.408 335.691 15.14C335.643 15.848 335.751 16.472 336.015 17.012C336.291 17.54 336.675 17.954 337.167 18.254C337.671 18.542 338.217 18.686 338.805 18.686C339.453 18.686 339.999 18.536 340.443 18.236C340.887 17.936 341.247 17.552 341.523 17.084L342.927 17.804C342.735 18.248 342.435 18.656 342.027 19.028C341.631 19.388 341.157 19.676 340.605 19.892C340.065 20.108 339.459 20.216 338.787 20.216ZM345.38 20V6.374H347.054V20H345.38Z" fill="#CBCED2"/>
<path d="M302.494 20H301.494V21H302.494V20ZM302.494 6.59V5.59H301.494V6.59H302.494ZM304.258 6.59H305.258V5.59H304.258V6.59ZM304.258 18.38H303.258V19.38H304.258V18.38ZM310.144 18.38H311.144V17.38H310.144V18.38ZM310.144 20V21H311.144V20H310.144ZM303.494 20V6.59H301.494V20H303.494ZM302.494 7.59H304.258V5.59H302.494V7.59ZM303.258 6.59V18.38H305.258V6.59H303.258ZM304.258 19.38H310.144V17.38H304.258V19.38ZM309.144 18.38V20H311.144V18.38H309.144ZM310.144 19H302.494V21H310.144V19ZM313.081 19.874L312.634 20.7684L312.647 20.7751L312.66 20.7813L313.081 19.874ZM311.947 18.902L311.111 19.4512L311.119 19.4623L311.947 18.902ZM311.857 16.076L310.978 15.5989L310.973 15.6081L311.857 16.076ZM312.901 15.014L312.386 14.1565L312.377 14.1623L312.901 15.014ZM314.701 14.402L314.538 13.4153L314.536 13.4156L314.701 14.402ZM318.301 13.808H319.301V12.6295L318.138 12.8213L318.301 13.808ZM318.301 15.212L318.466 16.1982L319.301 16.0583V15.212H318.301ZM315.079 15.752L314.914 14.7657L314.908 14.7666L315.079 15.752ZM313.711 16.346L313.004 15.6389L312.996 15.6464L312.989 15.6541L313.711 16.346ZM313.765 18.398L313.119 19.1614L313.126 19.1674L313.133 19.1732L313.765 18.398ZM316.555 18.416L317.048 19.2857L317.056 19.2814L316.555 18.416ZM317.617 17.354L316.757 16.8429L316.752 16.8516L316.747 16.8604L317.617 17.354ZM317.419 12.134L316.76 12.8866L316.773 12.8975L316.786 12.908L317.419 12.134ZM314.413 12.062L314.962 12.8977L314.968 12.894L314.413 12.062ZM313.477 13.178L313.016 14.0658L313.966 14.5581L314.394 13.5776L313.477 13.178ZM312.019 12.422L311.092 12.0463L310.75 12.8905L311.558 13.3098L312.019 12.422ZM312.883 11.234L313.543 11.9852L313.549 11.9796L313.555 11.9739L312.883 11.234ZM314.269 10.388L313.908 9.4552H313.908L314.269 10.388ZM317.887 10.514L317.432 11.4046L317.44 11.4085L317.447 11.4122L317.887 10.514ZM319.201 11.684L318.351 12.2104L318.358 12.2223L318.366 12.234L319.201 11.684ZM319.687 20V21H320.687V20H319.687ZM318.049 20H317.049V21H318.049V20ZM318.049 18.164L318.382 17.221L317.049 16.7506V18.164H318.049ZM318.355 18.272L319.238 18.7412L319.783 17.7155L318.688 17.329L318.355 18.272ZM317.527 19.28L316.889 18.5096L317.527 19.28ZM316.303 19.964L316.641 20.9052H316.641L316.303 19.964ZM314.773 19.216C314.257 19.216 313.841 19.124 313.501 18.9667L312.66 20.7813C313.305 21.08 314.016 21.216 314.773 21.216V19.216ZM313.528 18.9796C313.188 18.8093 312.946 18.5949 312.775 18.3417L311.119 19.4623C311.499 20.0251 312.014 20.4587 312.634 20.7684L313.528 18.9796ZM312.783 18.3528C312.622 18.1082 312.533 17.822 312.533 17.462H310.533C310.533 18.182 310.72 18.8558 311.111 19.4512L312.783 18.3528ZM312.533 17.462C312.533 17.0896 312.61 16.7914 312.741 16.5439L310.973 15.6081C310.672 16.1766 310.533 16.8024 310.533 17.462H312.533ZM312.736 16.5531C312.868 16.3086 313.083 16.0759 313.425 15.8657L312.377 14.1623C311.782 14.5281 311.301 15.0034 310.978 15.5989L312.736 16.5531ZM313.415 15.8715C313.761 15.6644 314.233 15.4937 314.865 15.3884L314.536 13.4156C313.728 13.5503 313.001 13.7876 312.386 14.1565L313.415 15.8715ZM314.864 15.3887L318.464 14.7947L318.138 12.8213L314.538 13.4153L314.864 15.3887ZM317.301 13.808V15.212H319.301V13.808H317.301ZM318.136 14.2258L314.914 14.7658L315.244 16.7382L318.466 16.1982L318.136 14.2258ZM314.908 14.7666C314.186 14.8917 313.498 15.1445 313.004 15.6389L314.418 17.0531C314.499 16.9715 314.724 16.8283 315.249 16.7374L314.908 14.7666ZM312.989 15.6541C312.524 16.1389 312.297 16.7452 312.297 17.408H314.297C314.297 17.2308 314.345 17.1291 314.433 17.0379L312.989 15.6541ZM312.297 17.408C312.297 18.1088 312.591 18.7144 313.119 19.1614L314.411 17.6346C314.315 17.5536 314.297 17.4992 314.297 17.408H312.297ZM313.133 19.1732C313.662 19.6038 314.297 19.794 314.971 19.794V17.794C314.685 17.794 314.516 17.7202 314.396 17.6228L313.133 19.1732ZM314.971 19.794C315.721 19.794 316.427 19.6386 317.048 19.2857L316.061 17.5463C315.795 17.6974 315.444 17.794 314.971 17.794V19.794ZM317.056 19.2814C317.66 18.9314 318.144 18.4512 318.486 17.8476L316.747 16.8604C316.586 17.1448 316.361 17.3726 316.054 17.5506L317.056 19.2814ZM318.476 17.8651C318.837 17.2593 319.013 16.5894 319.013 15.878H317.013C317.013 16.2466 316.925 16.5607 316.757 16.8429L318.476 17.8651ZM319.013 15.878V13.412H317.013V15.878H319.013ZM319.013 13.412C319.013 12.5951 318.689 11.8809 318.052 11.36L316.786 12.908C316.941 13.0351 317.013 13.1729 317.013 13.412H319.013ZM318.077 11.3814C317.469 10.8494 316.705 10.63 315.889 10.63V12.63C316.344 12.63 316.6 12.7466 316.76 12.8866L318.077 11.3814ZM315.889 10.63C315.153 10.63 314.465 10.8254 313.858 11.2299L314.968 12.894C315.225 12.7226 315.521 12.63 315.889 12.63V10.63ZM313.864 11.2263C313.279 11.6107 312.84 12.1354 312.56 12.7784L314.394 13.5776C314.521 13.2846 314.707 13.0653 314.962 12.8977L313.864 11.2263ZM313.937 12.2902L312.479 11.5342L311.558 13.3098L313.016 14.0658L313.937 12.2902ZM312.946 12.7977C313.061 12.5119 313.252 12.2409 313.543 11.9852L312.223 10.4828C311.722 10.9231 311.336 11.4441 311.092 12.0463L312.946 12.7977ZM313.555 11.9739C313.855 11.7016 314.21 11.4829 314.629 11.3208L313.908 9.4552C313.272 9.70108 312.703 10.0464 312.21 10.4941L313.555 11.9739ZM314.629 11.3208C315.04 11.162 315.47 11.082 315.925 11.082V9.082C315.228 9.082 314.553 9.20599 313.908 9.4552L314.629 11.3208ZM315.925 11.082C316.538 11.082 317.032 11.2001 317.432 11.4046L318.342 9.62339C317.614 9.25192 316.799 9.082 315.925 9.082V11.082ZM317.447 11.4122C317.853 11.6106 318.144 11.8762 318.351 12.2104L320.051 11.1576C319.634 10.4838 319.049 9.96944 318.326 9.61578L317.447 11.4122ZM318.366 12.234C318.569 12.5435 318.687 12.9232 318.687 13.412H320.687C320.687 12.5808 320.48 11.8085 320.036 11.134L318.366 12.234ZM318.687 13.412V20H320.687V13.412H318.687ZM319.687 19H318.049V21H319.687V19ZM319.049 20V18.164H317.049V20H319.049ZM317.716 19.107L318.022 19.215L318.688 17.329L318.382 17.221L317.716 19.107ZM317.472 17.8028C317.331 18.0669 317.14 18.3017 316.889 18.5096L318.164 20.0504C318.609 19.6823 318.97 19.2451 319.238 18.7412L317.472 17.8028ZM316.889 18.5096C316.639 18.7167 316.335 18.89 315.965 19.0228L316.641 20.9052C317.207 20.702 317.719 20.4193 318.164 20.0504L316.889 18.5096ZM315.965 19.0228C315.617 19.1479 315.222 19.216 314.773 19.216V21.216C315.427 21.216 316.053 21.1161 316.641 20.9052L315.965 19.0228ZM325.162 19.694L324.682 20.5713L324.689 20.575L325.162 19.694ZM323.686 18.218L322.91 17.5874L322.487 18.1087L322.809 18.698L323.686 18.218ZM323.92 17.93H324.92V15.1134L323.144 17.2994L323.92 17.93ZM323.92 20V21H324.92V20H323.92ZM322.282 20H321.282V21H322.282V20ZM322.282 6.374V5.374H321.282V6.374H322.282ZM323.956 6.374H324.956V5.374H323.956V6.374ZM323.956 12.386L323.102 12.9059L324.956 15.9521V12.386H323.956ZM323.704 11.972L322.856 11.442L322.529 11.9651L322.85 12.4919L323.704 11.972ZM325.18 10.604L325.654 11.4845L325.661 11.481L325.667 11.4774L325.18 10.604ZM329.77 10.748L329.245 11.5992L329.252 11.603L329.77 10.748ZM331.498 12.566L330.621 13.0458L330.624 13.0516L331.498 12.566ZM331.498 17.732L332.376 18.2118V18.2118L331.498 17.732ZM329.77 19.55L329.252 18.695L329.245 18.6988L329.77 19.55ZM328.816 18.146L329.346 18.994L328.816 18.146ZM329.932 16.922L329.046 16.4587L329.042 16.4665L329.932 16.922ZM329.932 13.394L329.042 13.8495L329.048 13.862L329.055 13.8743L329.932 13.394ZM328.816 12.17L328.271 13.0084L328.279 13.0133L328.286 13.018L328.816 12.17ZM325.522 12.152L325.002 11.2982L324.992 11.304L325.522 12.152ZM324.37 13.394L323.492 12.9151L323.489 12.9223L324.37 13.394ZM324.37 16.922L323.484 17.3853L323.49 17.3974L323.497 17.4094L324.37 16.922ZM325.522 18.146L324.992 18.994L325.002 18.9998L325.522 18.146ZM327.304 19.216C326.679 19.216 326.129 19.0782 325.635 18.813L324.689 20.575C325.491 21.0058 326.37 21.216 327.304 21.216V19.216ZM325.642 18.8167C325.174 18.5605 324.82 18.2063 324.564 17.738L322.809 18.698C323.249 19.5017 323.879 20.1315 324.682 20.5713L325.642 18.8167ZM324.462 18.8486L324.696 18.5606L323.144 17.2994L322.91 17.5874L324.462 18.8486ZM322.92 17.93V20H324.92V17.93H322.92ZM323.92 19H322.282V21H323.92V19ZM323.282 20V6.374H321.282V20H323.282ZM322.282 7.374H323.956V5.374H322.282V7.374ZM322.956 6.374V12.386H324.956V6.374H322.956ZM324.811 11.8661L324.559 11.4521L322.85 12.4919L323.102 12.9059L324.811 11.8661ZM324.552 12.502C324.816 12.0798 325.176 11.7418 325.654 11.4845L324.706 9.72353C323.936 10.1382 323.312 10.7122 322.856 11.442L324.552 12.502ZM325.667 11.4774C326.125 11.2224 326.667 11.082 327.322 11.082V9.082C326.37 9.082 325.484 9.28961 324.693 9.73064L325.667 11.4774ZM327.322 11.082C328.064 11.082 328.696 11.2601 329.245 11.5992L330.295 9.89683C329.405 9.34792 328.405 9.082 327.322 9.082V11.082ZM329.252 11.603C329.83 11.9536 330.283 12.4286 330.621 13.0458L332.376 12.0862C331.873 11.1674 331.175 10.4304 330.289 9.89299L329.252 11.603ZM330.624 13.0516C330.952 13.6414 331.128 14.3345 331.128 15.158H333.128C333.128 14.0375 332.885 13.0026 332.372 12.0804L330.624 13.0516ZM331.128 15.158C331.128 15.9526 330.954 16.6434 330.621 17.2522L332.376 18.2118C332.883 17.2846 333.128 16.2594 333.128 15.158H331.128ZM330.621 17.2522C330.283 17.8694 329.83 18.3444 329.252 18.695L330.289 20.405C331.175 19.8676 331.873 19.1306 332.376 18.2118L330.621 17.2522ZM329.245 18.6988C328.698 19.0366 328.061 19.216 327.304 19.216V21.216C328.396 21.216 329.403 20.9514 330.295 20.4012L329.245 18.6988ZM327.178 19.596C327.962 19.596 328.694 19.4014 329.346 18.994L328.286 17.298C327.978 17.4906 327.619 17.596 327.178 17.596V19.596ZM329.346 18.994C329.984 18.5958 330.478 18.0504 330.823 17.3775L329.042 16.4665C328.858 16.8256 328.609 17.0962 328.286 17.298L329.346 18.994ZM330.819 17.3853C331.176 16.702 331.346 15.9529 331.346 15.158H329.346C329.346 15.6591 329.241 16.086 329.046 16.4587L330.819 17.3853ZM331.346 15.158C331.346 14.3467 331.179 13.5881 330.809 12.9137L329.055 13.8743C329.238 14.2079 329.346 14.6253 329.346 15.158H331.346ZM330.823 12.9385C330.478 12.2656 329.984 11.7202 329.346 11.322L328.286 13.018C328.609 13.2198 328.858 13.4904 329.042 13.8495L330.823 12.9385ZM329.361 11.3316C328.708 10.9067 327.97 10.702 327.178 10.702V12.702C327.611 12.702 327.965 12.8092 328.271 13.0084L329.361 11.3316ZM327.178 10.702C326.395 10.702 325.66 10.8966 325.002 11.2982L326.043 13.0058C326.368 12.8074 326.738 12.702 327.178 12.702V10.702ZM324.992 11.304C324.357 11.7008 323.857 12.246 323.492 12.9151L325.248 13.8729C325.459 13.486 325.727 13.2032 326.052 13L324.992 11.304ZM323.489 12.9223C323.125 13.6011 322.956 14.3548 322.956 15.158H324.956C324.956 14.6412 325.063 14.2189 325.252 13.8657L323.489 12.9223ZM322.956 15.158C322.956 15.9529 323.127 16.702 323.484 17.3853L325.257 16.4587C325.062 16.086 324.956 15.6591 324.956 15.158H322.956ZM323.497 17.4094C323.864 18.0659 324.363 18.6007 324.992 18.994L326.052 17.298C325.722 17.0914 325.453 16.8101 325.244 16.4346L323.497 17.4094ZM325.002 18.9998C325.66 19.4014 326.395 19.596 327.178 19.596V17.596C326.738 17.596 326.368 17.4906 326.043 17.2922L325.002 18.9998ZM336.285 19.55L335.767 20.405L336.285 19.55ZM334.557 17.732L333.677 18.2061L333.68 18.2118L334.557 17.732ZM334.539 12.53L333.665 12.0443L333.659 12.0551L334.539 12.53ZM336.231 10.748L336.752 11.6016L336.756 11.5992L336.231 10.748ZM340.551 10.478L340.12 11.3801L340.132 11.3857L340.143 11.391L340.551 10.478ZM341.973 11.522L341.217 12.1762L341.226 12.1871L341.236 12.1977L341.973 11.522ZM342.873 13.016L341.933 13.3561L341.937 13.3683L341.942 13.3804L342.873 13.016ZM343.161 15.194L342.171 15.0526L342.167 15.0848L342.164 15.1173L343.161 15.194ZM343.107 15.644V16.644H343.954L344.094 15.8084L343.107 15.644ZM335.151 15.644H334.151V16.644H335.151V15.644ZM335.151 14.204V13.204H334.151V14.204H335.151ZM342.135 14.204L342.769 14.978L344.937 13.204H342.135V14.204ZM341.343 14.852L340.358 14.6815L339.901 17.3245L341.977 15.626L341.343 14.852ZM341.163 13.178L340.256 13.5985L341.163 13.178ZM340.155 12.008L340.7 11.169L340.155 12.008ZM337.095 12.008L336.571 11.1563V11.1563L337.095 12.008ZM335.997 13.25L335.099 12.8108L335.095 12.8193L335.997 13.25ZM335.691 15.14L336.689 15.2076L336.694 15.1411L336.689 15.0746L335.691 15.14ZM336.015 17.012L335.117 17.4512L335.123 17.4633L335.129 17.4753L336.015 17.012ZM337.167 18.254L336.647 19.1078L336.659 19.1152L336.671 19.1222L337.167 18.254ZM341.523 17.084L341.98 16.1942L341.141 15.764L340.662 16.576L341.523 17.084ZM342.927 17.804L343.845 18.2009L344.217 17.3415L343.384 16.9142L342.927 17.804ZM342.027 19.028L342.7 19.7679L342.701 19.767L342.027 19.028ZM340.605 19.892L340.241 18.9607L340.234 18.9635L340.605 19.892ZM338.787 19.216C338.017 19.216 337.365 19.0354 336.804 18.695L335.767 20.405C336.67 20.9526 337.686 21.216 338.787 21.216V19.216ZM336.804 18.695C336.226 18.3444 335.772 17.8694 335.435 17.2522L333.68 18.2118C334.182 19.1306 334.881 19.8676 335.767 20.405L336.804 18.695ZM335.438 17.2579C335.103 16.6356 334.927 15.9307 334.927 15.122H332.927C332.927 16.2333 333.172 17.2684 333.677 18.2061L335.438 17.2579ZM334.927 15.122C334.927 14.2937 335.1 13.5967 335.419 13.0049L333.659 12.0551C333.163 12.9753 332.927 14.0063 332.927 15.122H334.927ZM335.414 13.0156C335.753 12.4041 336.198 11.9397 336.752 11.6016L335.71 9.89436C334.848 10.4203 334.165 11.1439 333.665 12.0444L335.414 13.0156ZM336.756 11.5992C337.31 11.2574 337.931 11.082 338.643 11.082V9.082C337.58 9.082 336.592 9.35058 335.706 9.89683L336.756 11.5992ZM338.643 11.082C339.24 11.082 339.724 11.191 340.12 11.3801L340.983 9.57586C340.274 9.23702 339.486 9.082 338.643 9.082V11.082ZM340.143 11.391C340.581 11.5865 340.934 11.8487 341.217 12.1762L342.73 10.8678C342.245 10.3073 341.65 9.87353 340.959 9.56499L340.143 11.391ZM341.236 12.1977C341.541 12.5301 341.773 12.9133 341.933 13.3561L343.814 12.6759C343.566 11.9907 343.198 11.3779 342.71 10.8463L341.236 12.1977ZM341.942 13.3804C342.112 13.8148 342.197 14.2671 342.197 14.744H344.197C344.197 14.0209 344.067 13.3212 343.805 12.6516L341.942 13.3804ZM342.197 14.744C342.197 14.8176 342.19 14.9189 342.171 15.0526L344.151 15.3354C344.18 15.1331 344.197 14.9344 344.197 14.744H342.197ZM342.164 15.1173C342.154 15.246 342.14 15.3666 342.121 15.4796L344.094 15.8084C344.123 15.6334 344.144 15.454 344.158 15.2707L342.164 15.1173ZM343.107 14.644H335.151V16.644H343.107V14.644ZM336.151 15.644V14.204H334.151V15.644H336.151ZM335.151 15.204H342.135V13.204H335.151V15.204ZM341.502 13.43L340.71 14.078L341.977 15.626L342.769 14.978L341.502 13.43ZM342.329 15.0225C342.465 14.2327 342.398 13.4635 342.071 12.7575L340.256 13.5985C340.385 13.8765 340.437 14.2233 340.358 14.6815L342.329 15.0225ZM342.071 12.7575C341.766 12.0991 341.306 11.5622 340.7 11.169L339.611 12.847C339.893 13.0298 340.105 13.2729 340.256 13.5985L342.071 12.7575ZM340.7 11.169C340.083 10.7689 339.387 10.576 338.643 10.576V12.576C339.027 12.576 339.34 12.6711 339.611 12.847L340.7 11.169ZM338.643 10.576C337.899 10.576 337.201 10.7687 336.571 11.1563L337.619 12.8597C337.926 12.6713 338.259 12.576 338.643 12.576V10.576ZM336.571 11.1563C335.927 11.5528 335.438 12.1172 335.099 12.8108L336.896 13.6892C337.085 13.3028 337.328 13.0392 337.619 12.8597L336.571 11.1563ZM335.095 12.8193C334.753 13.5363 334.637 14.3453 334.693 15.2054L336.689 15.0746C336.65 14.4707 336.738 14.0197 336.9 13.6807L335.095 12.8193ZM334.694 15.0724C334.636 15.9234 334.763 16.7276 335.117 17.4512L336.914 16.5728C336.74 16.2164 336.651 15.7726 336.689 15.2076L334.694 15.0724ZM335.129 17.4753C335.486 18.1585 335.994 18.7099 336.647 19.1078L337.688 17.4002C337.356 17.1981 337.096 16.9215 336.902 16.5487L335.129 17.4753ZM336.671 19.1222C337.328 19.4977 338.046 19.686 338.805 19.686V17.686C338.389 17.686 338.014 17.5863 337.663 17.3858L336.671 19.1222ZM338.805 19.686C339.611 19.686 340.362 19.4979 341.003 19.0646L339.883 17.4074C339.637 17.5741 339.296 17.686 338.805 17.686V19.686ZM341.003 19.0646C341.572 18.6802 342.034 18.1861 342.385 17.592L340.662 16.576C340.46 16.9179 340.203 17.1918 339.883 17.4074L341.003 19.0646ZM341.067 17.9738L342.471 18.6938L343.384 16.9142L341.98 16.1942L341.067 17.9738ZM342.009 17.4071C341.881 17.7039 341.672 17.999 341.354 18.289L342.701 19.767C343.199 19.313 343.59 18.7921 343.845 18.2009L342.009 17.4071ZM341.355 18.2881C341.058 18.5577 340.692 18.7844 340.241 18.9608L340.97 20.8232C341.623 20.5676 342.205 20.2183 342.7 19.7679L341.355 18.2881ZM340.234 18.9635C339.829 19.1255 339.352 19.216 338.787 19.216V21.216C339.567 21.216 340.302 21.0905 340.977 20.8205L340.234 18.9635ZM345.38 20H344.38V21H345.38V20ZM345.38 6.374V5.374H344.38V6.374H345.38ZM347.054 6.374H348.054V5.374H347.054V6.374ZM347.054 20V21H348.054V20H347.054ZM346.38 20V6.374H344.38V20H346.38ZM345.38 7.374H347.054V5.374H345.38V7.374ZM346.054 6.374V20H348.054V6.374H346.054ZM347.054 19H345.38V21H347.054V19Z" fill="#B2B6BC" mask="url(#path-2-outside-1_1448_2)"/>
<line x1="370" y1="12" x2="650" y2="12" stroke="#B2B6BC" stroke-width="2"/>
</svg>
