<svg width="24" height="24" viewBox="0 0 24 24" fill="none" xmlns="http://www.w3.org/2000/svg">
<mask id="path-1-inside-1_934_9866" fill="white">
<path d="M17.0235 16.7142C17.3577 16.9613 17.4311 17.4358 17.1496 17.7415C16.262 18.7055 15.1176 19.405 13.8438 19.7528C12.327 20.167 10.7149 20.0584 9.26736 19.4446C7.81978 18.8308 6.62101 17.7475 5.86421 16.3693C5.1074 14.9911 4.83664 13.3982 5.09556 11.8473C5.35447 10.2964 6.12798 8.87791 7.29144 7.82028C8.45491 6.76265 9.94056 6.12752 11.509 6.01724C13.0775 5.90696 14.6374 6.32794 15.9374 7.21236C17.0292 7.9551 17.8842 8.98837 18.4106 10.1884C18.5775 10.569 18.3539 10.9939 17.9576 11.1191C17.5613 11.2442 17.1432 11.0212 16.9651 10.6457C16.5482 9.76638 15.9029 9.00916 15.0909 8.4567C14.0704 7.76243 12.8458 7.43196 11.6146 7.51853C10.3833 7.6051 9.2171 8.10368 8.30378 8.93392C7.39046 9.76416 6.78326 10.8777 6.58001 12.0951C6.37676 13.3126 6.58931 14.563 7.1834 15.6449C7.77749 16.7268 8.71853 17.5772 9.85487 18.059C10.9912 18.5408 12.2567 18.6261 13.4474 18.301C14.3949 18.0422 15.2511 17.5357 15.9311 16.8395C16.2215 16.5422 16.6893 16.4672 17.0235 16.7142Z"/>
</mask>
<path d="M17.0235 16.7142C17.3577 16.9613 17.4311 17.4358 17.1496 17.7415C16.262 18.7055 15.1176 19.405 13.8438 19.7528C12.327 20.167 10.7149 20.0584 9.26736 19.4446C7.81978 18.8308 6.62101 17.7475 5.86421 16.3693C5.1074 14.9911 4.83664 13.3982 5.09556 11.8473C5.35447 10.2964 6.12798 8.87791 7.29144 7.82028C8.45491 6.76265 9.94056 6.12752 11.509 6.01724C13.0775 5.90696 14.6374 6.32794 15.9374 7.21236C17.0292 7.9551 17.8842 8.98837 18.4106 10.1884C18.5775 10.569 18.3539 10.9939 17.9576 11.1191C17.5613 11.2442 17.1432 11.0212 16.9651 10.6457C16.5482 9.76638 15.9029 9.00916 15.0909 8.4567C14.0704 7.76243 12.8458 7.43196 11.6146 7.51853C10.3833 7.6051 9.2171 8.10368 8.30378 8.93392C7.39046 9.76416 6.78326 10.8777 6.58001 12.0951C6.37676 13.3126 6.58931 14.563 7.1834 15.6449C7.77749 16.7268 8.71853 17.5772 9.85487 18.059C10.9912 18.5408 12.2567 18.6261 13.4474 18.301C14.3949 18.0422 15.2511 17.5357 15.9311 16.8395C16.2215 16.5422 16.6893 16.4672 17.0235 16.7142Z" fill="#D9D9D9" stroke="#3E454E" stroke-width="3" mask="url(#path-1-inside-1_934_9866)"/>
<path d="M19.1621 7.00001L18.3484 12.1175L14 10.0583" stroke="#3E454E" stroke-width="1.5" stroke-linecap="round" stroke-linejoin="round"/>
</svg>
