<svg width="24" height="24" viewBox="0 0 24 24" fill="none" xmlns="http://www.w3.org/2000/svg">
<path d="M11.771 2.92229C11.801 2.84771 11.8403 2.80887 11.8735 2.78702C11.9097 2.76322 11.9536 2.75 12 2.75C12.0464 2.75 12.0903 2.76322 12.1265 2.78702C12.1597 2.80887 12.199 2.84771 12.229 2.92229L14.2808 8.01445C14.5258 8.62255 15.084 9.06029 15.7499 9.11944L21.0137 9.58704C21.1086 9.59548 21.1932 9.6551 21.2332 9.78401C21.2737 9.91435 21.2417 10.0393 21.1484 10.1237L17.1526 13.7384C16.6646 14.1799 16.4611 14.8549 16.603 15.4907L17.8045 20.8718C17.8378 21.0208 17.7806 21.1344 17.6953 21.1992C17.6519 21.2322 17.6076 21.247 17.5707 21.2496C17.5386 21.2518 17.4962 21.2464 17.441 21.2116L12.9198 18.3534C12.3559 17.997 11.6441 17.997 11.0802 18.3534L6.55897 21.2116C6.50384 21.2464 6.46142 21.2518 6.42926 21.2496C6.39244 21.247 6.34812 21.2322 6.30469 21.1992C6.21939 21.1344 6.16224 21.0208 6.1955 20.8718L7.39696 15.4907C7.53892 14.8549 7.3354 14.1799 6.84736 13.7384L2.85161 10.1237C2.75831 10.0393 2.72626 9.91435 2.76675 9.78401C2.80679 9.6551 2.89136 9.59548 2.98632 9.58704L8.25012 9.11944C8.916 9.06029 9.47418 8.62255 9.7192 8.01445L11.771 2.92229Z" stroke="#3E454E" stroke-width="1.5"/>
</svg>
