<svg width="24" height="24" viewBox="0 0 24 24" fill="none" xmlns="http://www.w3.org/2000/svg">
<rect width="24" height="24" fill="white"/>
<path d="M15.5 15.5L20.5 20.5" stroke="#3E454E" stroke-width="1.5" stroke-linecap="round"/>
<path fill-rule="evenodd" clip-rule="evenodd" d="M18 10C18 14.4183 14.4183 18 10 18C5.58172 18 2 14.4183 2 10C2 5.58172 5.58172 2 10 2C14.4183 2 18 5.58172 18 10ZM10 14.5C10.2761 14.5 10.5 14.2761 10.5 14V10.5H14C14.2761 10.5 14.5 10.2761 14.5 10C14.5 9.72386 14.2761 9.5 14 9.5H10.5V6C10.5 5.72386 10.2761 5.5 10 5.5C9.72386 5.5 9.5 5.72386 9.5 6V9.5H6C5.72386 9.5 5.5 9.72386 5.5 10C5.5 10.2761 5.72386 10.5 6 10.5H9.5V14C9.5 14.2761 9.72386 14.5 10 14.5Z" fill="#3E454E"/>
</svg>
