<svg width="24" height="24" viewBox="0 0 24 24" fill="none" xmlns="http://www.w3.org/2000/svg">
<rect width="24" height="24" fill="white"/>
<rect x="5" y="11.5264" width="2" height="2" rx="1" fill="#3E454E"/>
<rect x="8" y="11.5264" width="2" height="2" rx="1" fill="#3E454E"/>
<rect x="11" y="11.5264" width="2" height="2" rx="1" fill="#3E454E"/>
<rect x="14" y="11.5264" width="2" height="2" rx="1" fill="#3E454E"/>
<rect x="17" y="11.5264" width="2" height="2" rx="1" fill="#3E454E"/>
<rect x="5" y="14.5264" width="2" height="2" rx="1" fill="#3E454E"/>
<rect x="8" y="14.5264" width="2" height="2" rx="1" fill="#3E454E"/>
<rect x="11" y="14.5264" width="2" height="2" rx="1" fill="#3E454E"/>
<rect x="14" y="14.5264" width="2" height="2" rx="1" fill="#3E454E"/>
<rect x="17" y="14.5264" width="2" height="2" rx="1" fill="#3E454E"/>
<rect x="5" y="17.5264" width="2" height="2" rx="1" fill="#3E454E"/>
<rect x="8" y="17.5264" width="2" height="2" rx="1" fill="#3E454E"/>
<rect x="11" y="17.5264" width="2" height="2" rx="1" fill="#3E454E"/>
<rect x="14" y="17.5264" width="2" height="2" rx="1" fill="#3E454E"/>
<rect x="17" y="17.5264" width="2" height="2" rx="1" fill="#3E454E"/>
<path d="M6 4.89478H5C3.89543 4.89478 3 5.79021 3 6.89478V9.98065V19C3 20.1046 3.89543 21 5 21H19C20.1046 21 21 20.1046 21 19V9.98065V6.89478C21 5.79021 20.1046 4.89478 19 4.89478H18M10 4.89478H14" stroke="#3E454E" stroke-width="1.5"/>
<rect x="7" y="3" width="2" height="3.78947" rx="1" fill="#3E454E"/>
<rect x="15" y="3" width="2" height="3.78947" rx="1" fill="#3E454E"/>
<line x1="3" y1="8.88159" x2="21" y2="8.88159" stroke="#3E454E" stroke-width="1.5"/>
</svg>
