<svg width="24" height="24" viewBox="0 0 24 24" fill="none" xmlns="http://www.w3.org/2000/svg">
<mask id="path-1-inside-1_529_449" fill="white">
<path fill-rule="evenodd" clip-rule="evenodd" d="M11 2C9.8954 2 8.99997 2.89543 8.99997 4V5.67363C8.65781 5.83617 8.33093 6.02566 8.02207 6.23934L6.57174 5.40199C5.61516 4.84971 4.39198 5.17746 3.83969 6.13404L2.83969 7.86609C2.28741 8.82268 2.61516 10.0459 3.57175 10.5981L5.02239 11.4357C5.00754 11.6218 4.99997 11.81 4.99997 12C4.99997 12.19 5.00754 12.3782 5.02239 12.5644L3.57179 13.4019C2.61521 13.9541 2.28746 15.1773 2.83974 16.1339L3.83974 17.866C4.39203 18.8225 5.61521 19.1503 6.57179 18.598L8.02209 17.7607C8.33095 17.9744 8.65782 18.1638 8.99997 18.3264V20C8.99997 21.1046 9.8954 22 11 22H13C14.1045 22 15 21.1046 15 20V18.3264C15.3421 18.1638 15.6689 17.9744 15.9777 17.7608L17.4282 18.5981C18.3847 19.1504 19.6079 18.8227 20.1602 17.8661L21.1602 16.134C21.7125 15.1775 21.3847 13.9543 20.4282 13.402L18.9775 12.5645C18.9924 12.3783 19 12.19 19 12C19 11.81 18.9924 11.6217 18.9775 11.4355L20.4282 10.598C21.3848 10.0457 21.7125 8.82254 21.1603 7.86596L20.1603 6.13391C19.608 5.17732 18.3848 4.84957 17.4282 5.40186L15.9778 6.23926C15.6689 6.02561 15.3421 5.83615 15 5.67363V4C15 2.89543 14.1045 2 13 2H11Z"/>
</mask>
<path d="M8.99997 5.67363L9.64361 7.02852L10.5 6.62171V5.67363H8.99997ZM8.02207 6.23934L7.27207 7.53838L8.09451 8.01321L8.87549 7.4729L8.02207 6.23934ZM6.57174 5.40199L5.82175 6.70103L6.57174 5.40199ZM3.83969 6.13404L2.54066 5.38404H2.54066L3.83969 6.13404ZM2.83969 7.86609L1.54066 7.11609L2.83969 7.86609ZM3.57175 10.5981L4.32175 9.29911L4.32174 9.29911L3.57175 10.5981ZM5.02239 11.4357L6.51764 11.555L6.59299 10.6104L5.77239 10.1366L5.02239 11.4357ZM5.02239 12.5644L5.77239 13.8634L6.593 13.3896L6.51764 12.4451L5.02239 12.5644ZM3.57179 13.4019L2.82179 12.1028H2.82179L3.57179 13.4019ZM2.83974 16.1339L4.13878 15.3839H4.13878L2.83974 16.1339ZM3.83974 17.866L5.13878 17.116H5.13878L3.83974 17.866ZM6.57179 18.598L7.32179 19.897H7.32179L6.57179 18.598ZM8.02209 17.7607L8.87551 16.5271L8.09453 15.9868L7.27209 16.4616L8.02209 17.7607ZM8.99997 18.3264H10.5V17.3783L9.64361 16.9715L8.99997 18.3264ZM15 18.3264L14.3563 16.9715L13.5 17.3783V18.3264H15ZM15.9777 17.7608L16.7277 16.4617L15.9053 15.9869L15.1244 16.5272L15.9777 17.7608ZM17.4282 18.5981L16.6782 19.8972L17.4282 18.5981ZM20.1602 17.8661L21.4592 18.6161V18.6161L20.1602 17.8661ZM21.1602 16.134L22.4592 16.884V16.884L21.1602 16.134ZM20.4282 13.402L19.6782 14.701L20.4282 13.402ZM18.9775 12.5645L17.4823 12.4452L17.4069 13.3897L18.2275 13.8635L18.9775 12.5645ZM18.9775 11.4355L18.2275 10.1365L17.4069 10.6103L17.4823 11.5548L18.9775 11.4355ZM20.4282 10.598L19.6782 9.29897L20.4282 10.598ZM21.1603 7.86596L22.4593 7.11596V7.11596L21.1603 7.86596ZM20.1603 6.13391L18.8612 6.88391V6.88391L20.1603 6.13391ZM17.4282 5.40186L18.1782 6.70089L17.4282 5.40186ZM15.9778 6.23926L15.1244 7.47284L15.9053 8.01313L16.7278 7.5383L15.9778 6.23926ZM15 5.67363H13.5V6.62171L14.3563 7.02852L15 5.67363ZM10.5 4C10.5 3.72386 10.7238 3.5 11 3.5V0.5C9.06698 0.5 7.49997 2.067 7.49997 4H10.5ZM10.5 5.67363V4H7.49997V5.67363H10.5ZM8.87549 7.4729C9.11834 7.30489 9.37511 7.15607 9.64361 7.02852L8.35633 4.31874C7.94051 4.51627 7.54353 4.74642 7.16865 5.00578L8.87549 7.4729ZM5.82175 6.70103L7.27207 7.53838L8.77207 4.9403L7.32174 4.10295L5.82175 6.70103ZM5.13873 6.88404C5.2768 6.6449 5.5826 6.56296 5.82175 6.70103L7.32174 4.10295C5.64772 3.13646 3.50715 3.71002 2.54066 5.38404L5.13873 6.88404ZM4.13873 8.61609L5.13873 6.88404L2.54066 5.38404L1.54066 7.11609L4.13873 8.61609ZM4.32174 9.29911C4.0826 9.16104 4.00066 8.85524 4.13873 8.61609L1.54066 7.11609C0.574158 8.79012 1.14772 10.9307 2.82175 11.8972L4.32174 9.29911ZM5.77239 10.1366L4.32175 9.29911L2.82175 11.8972L4.27239 12.7347L5.77239 10.1366ZM6.49997 12C6.49997 11.8499 6.50595 11.7015 6.51764 11.555L3.52714 11.3164C3.50913 11.5422 3.49997 11.7702 3.49997 12H6.49997ZM6.51764 12.4451C6.50595 12.2985 6.49997 12.1501 6.49997 12H3.49997C3.49997 12.2298 3.50913 12.4578 3.52714 12.6836L6.51764 12.4451ZM4.32179 14.7009L5.77239 13.8634L4.27239 11.2653L2.82179 12.1028L4.32179 14.7009ZM4.13878 15.3839C4.00071 15.1448 4.08265 14.839 4.3218 14.7009L2.82179 12.1028C1.14777 13.0693 0.574207 15.2099 1.54071 16.8839L4.13878 15.3839ZM5.13878 17.116L4.13878 15.3839L1.54071 16.8839L2.54071 18.616L5.13878 17.116ZM5.8218 17.299C5.58265 17.437 5.27685 17.3551 5.13878 17.116L2.54071 18.616C3.5072 20.29 5.64777 20.8635 7.32179 19.897L5.8218 17.299ZM7.27209 16.4616L5.8218 17.299L7.32179 19.897L8.77209 19.0597L7.27209 16.4616ZM9.64361 16.9715C9.37512 16.8439 9.11835 16.6951 8.87551 16.5271L7.16868 18.9942C7.54355 19.2536 7.94053 19.4837 8.35633 19.6813L9.64361 16.9715ZM10.5 20V18.3264H7.49997V20H10.5ZM11 20.5C10.7238 20.5 10.5 20.2761 10.5 20H7.49997C7.49997 21.933 9.06698 23.5 11 23.5V20.5ZM13 20.5H11V23.5H13V20.5ZM13.5 20C13.5 20.2761 13.2761 20.5 13 20.5V23.5C14.933 23.5 16.5 21.933 16.5 20H13.5ZM13.5 18.3264V20H16.5V18.3264H13.5ZM15.1244 16.5272C14.8815 16.6952 14.6248 16.8439 14.3563 16.9715L15.6436 19.6813C16.0594 19.4838 16.4563 19.2536 16.8311 18.9943L15.1244 16.5272ZM18.1782 17.2991L16.7277 16.4617L15.2277 19.0598L16.6782 19.8972L18.1782 17.2991ZM18.8612 17.1161C18.7231 17.3552 18.4173 17.4372 18.1782 17.2991L16.6782 19.8972C18.3522 20.8637 20.4927 20.2901 21.4592 18.6161L18.8612 17.1161ZM19.8612 15.384L18.8612 17.1161L21.4592 18.6161L22.4592 16.884L19.8612 15.384ZM19.6782 14.701C19.9173 14.8391 19.9992 15.1449 19.8612 15.384L22.4592 16.884C23.4257 15.21 22.8522 13.0695 21.1782 12.103L19.6782 14.701ZM18.2275 13.8635L19.6782 14.701L21.1782 12.103L19.7275 11.2654L18.2275 13.8635ZM17.5 12C17.5 12.1502 17.494 12.2986 17.4823 12.4452L20.4728 12.6838C20.4908 12.4579 20.5 12.2299 20.5 12H17.5ZM17.4823 11.5548C17.494 11.7014 17.5 11.8499 17.5 12H20.5C20.5 11.7701 20.4908 11.5421 20.4728 11.3162L17.4823 11.5548ZM19.6782 9.29897L18.2275 10.1365L19.7275 12.7346L21.1782 11.897L19.6782 9.29897ZM19.8612 8.61596C19.9993 8.8551 19.9173 9.1609 19.6782 9.29897L21.1782 11.897C22.8522 10.9305 23.4258 8.78998 22.4593 7.11596L19.8612 8.61596ZM18.8612 6.88391L19.8612 8.61596L22.4593 7.11596L21.4593 5.38391L18.8612 6.88391ZM18.1782 6.70089C18.4173 6.56282 18.7231 6.64476 18.8612 6.88391L21.4593 5.38391C20.4928 3.70988 18.3522 3.13632 16.6782 4.10282L18.1782 6.70089ZM16.7278 7.5383L18.1782 6.70089L16.6782 4.10282L15.2278 4.94023L16.7278 7.5383ZM14.3563 7.02852C14.6248 7.15606 14.8815 7.30485 15.1244 7.47284L16.8312 5.00569C16.4563 4.74637 16.0594 4.51625 15.6436 4.31874L14.3563 7.02852ZM13.5 4V5.67363H16.5V4H13.5ZM13 3.5C13.2761 3.5 13.5 3.72386 13.5 4H16.5C16.5 2.067 14.933 0.5 13 0.5V3.5ZM11 3.5H13V0.5H11V3.5Z" fill="#3E454E" mask="url(#path-1-inside-1_529_449)"/>
<circle cx="12" cy="12" r="3.25" stroke="#3E454E" stroke-width="1.5"/>
</svg>
