<svg width="24" height="24" viewBox="0 0 24 24" fill="none" xmlns="http://www.w3.org/2000/svg">
<path fill-rule="evenodd" clip-rule="evenodd" d="M12 22C17.5228 22 22 17.5228 22 12C22 6.47715 17.5228 2 12 2C6.47715 2 2 6.47715 2 12C2 17.5228 6.47715 22 12 22ZM16.5529 9.50679C16.8327 9.20145 16.8121 8.72703 16.5068 8.44713C16.2014 8.16724 15.727 8.18787 15.4471 8.49321L10.5789 13.804C10.49 13.901 10.3412 13.9125 10.2384 13.8303L8.46852 12.4143C8.14508 12.1556 7.67311 12.208 7.41435 12.5315C7.15559 12.8549 7.20803 13.3269 7.53148 13.5857L9.30139 15.0016C10.0205 15.5769 11.0624 15.4964 11.6846 14.8176L16.5529 9.50679Z" fill="#3E454E"/>
</svg>
