<svg width="24" height="24" viewBox="0 0 24 24" fill="none" xmlns="http://www.w3.org/2000/svg">
<rect width="24" height="24" fill="white"/>
<path fill-rule="evenodd" clip-rule="evenodd" d="M18.3083 5.79965C15.3521 0.733448 8.64795 0.733449 5.69169 5.79965C3.20826 10.0556 8.01817 17.6975 10.5635 21.2344C11.2981 22.2552 12.7019 22.2552 13.4365 21.2344C15.9818 17.6975 20.7917 10.0555 18.3083 5.79965ZM14.5 9C14.5 10.3807 13.3807 11.5 12 11.5C10.6193 11.5 9.5 10.3807 9.5 9C9.5 7.61929 10.6193 6.5 12 6.5C13.3807 6.5 14.5 7.61929 14.5 9ZM16 9C16 11.2091 14.2091 13 12 13C9.79086 13 8 11.2091 8 9C8 6.79086 9.79086 5 12 5C14.2091 5 16 6.79086 16 9Z" fill="#3E454E"/>
</svg>
