<svg width="24" height="24" viewBox="0 0 24 24" fill="none" xmlns="http://www.w3.org/2000/svg">
<rect width="24" height="24" fill="white"/>
<mask id="path-1-inside-1_934_10287" fill="white">
<path fill-rule="evenodd" clip-rule="evenodd" d="M12 22C17.5228 22 22 17.5228 22 12C22 6.47715 17.5228 2 12 2C6.47715 2 2 6.47715 2 12C2 17.5228 6.47715 22 12 22ZM12.75 7C12.75 6.58579 12.4142 6.25 12 6.25C11.5858 6.25 11.25 6.58579 11.25 7V11.5858C11.25 12.0499 11.4344 12.495 11.7626 12.8232L14.4697 15.5303C14.7626 15.8232 15.2374 15.8232 15.5303 15.5303C15.8232 15.2374 15.8232 14.7626 15.5303 14.4697L12.8232 11.7626C12.7763 11.7157 12.75 11.6521 12.75 11.5858V7Z"/>
</mask>
<path fill-rule="evenodd" clip-rule="evenodd" d="M12 22C17.5228 22 22 17.5228 22 12C22 6.47715 17.5228 2 12 2C6.47715 2 2 6.47715 2 12C2 17.5228 6.47715 22 12 22ZM12.75 7C12.75 6.58579 12.4142 6.25 12 6.25C11.5858 6.25 11.25 6.58579 11.25 7V11.5858C11.25 12.0499 11.4344 12.495 11.7626 12.8232L14.4697 15.5303C14.7626 15.8232 15.2374 15.8232 15.5303 15.5303C15.8232 15.2374 15.8232 14.7626 15.5303 14.4697L12.8232 11.7626C12.7763 11.7157 12.75 11.6521 12.75 11.5858V7Z" fill="#3E454E"/>
<path d="M11.7626 12.8232L10.7019 13.8839L10.7019 13.8839L11.7626 12.8232ZM14.4697 15.5303L13.409 16.591L13.409 16.591L14.4697 15.5303ZM15.5303 14.4697L16.591 13.409L16.591 13.409L15.5303 14.4697ZM12.8232 11.7626L13.8839 10.7019L13.8839 10.7019L12.8232 11.7626ZM20.5 12C20.5 16.6944 16.6944 20.5 12 20.5V23.5C18.3513 23.5 23.5 18.3513 23.5 12H20.5ZM12 3.5C16.6944 3.5 20.5 7.30558 20.5 12H23.5C23.5 5.64873 18.3513 0.5 12 0.5V3.5ZM3.5 12C3.5 7.30558 7.30558 3.5 12 3.5V0.5C5.64873 0.5 0.5 5.64873 0.5 12H3.5ZM12 20.5C7.30558 20.5 3.5 16.6944 3.5 12H0.5C0.5 18.3513 5.64873 23.5 12 23.5V20.5ZM12 7.75C11.5858 7.75 11.25 7.41421 11.25 7H14.25C14.25 5.75736 13.2426 4.75 12 4.75V7.75ZM12.75 7C12.75 7.41421 12.4142 7.75 12 7.75V4.75C10.7574 4.75 9.75 5.75736 9.75 7H12.75ZM12.75 11.5858V7H9.75V11.5858H12.75ZM12.8232 11.7626C12.7763 11.7157 12.75 11.6521 12.75 11.5858H9.75C9.75 12.4477 10.0924 13.2744 10.7019 13.8839L12.8232 11.7626ZM15.5303 14.4697L12.8232 11.7626L10.7019 13.8839L13.409 16.591L15.5303 14.4697ZM14.4697 14.4697C14.7626 14.1768 15.2374 14.1768 15.5303 14.4697L13.409 16.591C14.2877 17.4697 15.7123 17.4697 16.591 16.591L14.4697 14.4697ZM14.4697 15.5303C14.1768 15.2374 14.1768 14.7626 14.4697 14.4697L16.591 16.591C17.4697 15.7123 17.4697 14.2877 16.591 13.409L14.4697 15.5303ZM11.7626 12.8232L14.4697 15.5303L16.591 13.409L13.8839 10.7019L11.7626 12.8232ZM11.25 11.5858C11.25 12.0499 11.4344 12.495 11.7626 12.8232L13.8839 10.7019C14.1183 10.9363 14.25 11.2543 14.25 11.5858H11.25ZM11.25 7V11.5858H14.25V7H11.25Z" fill="#3E454E" mask="url(#path-1-inside-1_934_10287)"/>
</svg>
