<svg width="24" height="24" viewBox="0 0 24 24" fill="none" xmlns="http://www.w3.org/2000/svg">
<rect width="24" height="24" fill="white"/>
<mask id="path-1-inside-1_934_10010" fill="white">
<path fill-rule="evenodd" clip-rule="evenodd" d="M12 22C17.5228 22 22 17.5228 22 12C22 6.47715 17.5228 2 12 2C6.47715 2 2 6.47715 2 12C2 17.5228 6.47715 22 12 22ZM9 8C8.44772 8 8 8.44772 8 9V15C8 15.5523 8.44772 16 9 16H15C15.5523 16 16 15.5523 16 15V9C16 8.44772 15.5523 8 15 8H9Z"/>
</mask>
<path fill-rule="evenodd" clip-rule="evenodd" d="M12 22C17.5228 22 22 17.5228 22 12C22 6.47715 17.5228 2 12 2C6.47715 2 2 6.47715 2 12C2 17.5228 6.47715 22 12 22ZM9 8C8.44772 8 8 8.44772 8 9V15C8 15.5523 8.44772 16 9 16H15C15.5523 16 16 15.5523 16 15V9C16 8.44772 15.5523 8 15 8H9Z" fill="#3E454E"/>
<path d="M20.5 12C20.5 16.6944 16.6944 20.5 12 20.5V23.5C18.3513 23.5 23.5 18.3513 23.5 12H20.5ZM12 3.5C16.6944 3.5 20.5 7.30558 20.5 12H23.5C23.5 5.64873 18.3513 0.5 12 0.5V3.5ZM3.5 12C3.5 7.30558 7.30558 3.5 12 3.5V0.5C5.64873 0.5 0.5 5.64873 0.5 12H3.5ZM12 20.5C7.30558 20.5 3.5 16.6944 3.5 12H0.5C0.5 18.3513 5.64873 23.5 12 23.5V20.5ZM9.5 9C9.5 9.27614 9.27614 9.5 9 9.5V6.5C7.61929 6.5 6.5 7.61929 6.5 9H9.5ZM9.5 15V9H6.5V15H9.5ZM9 14.5C9.27614 14.5 9.5 14.7239 9.5 15H6.5C6.5 16.3807 7.61929 17.5 9 17.5V14.5ZM15 14.5H9V17.5H15V14.5ZM14.5 15C14.5 14.7239 14.7239 14.5 15 14.5V17.5C16.3807 17.5 17.5 16.3807 17.5 15H14.5ZM14.5 9V15H17.5V9H14.5ZM15 9.5C14.7239 9.5 14.5 9.27614 14.5 9H17.5C17.5 7.61929 16.3807 6.5 15 6.5V9.5ZM9 9.5H15V6.5H9V9.5Z" fill="#3E454E" mask="url(#path-1-inside-1_934_10010)"/>
</svg>
