<svg width="24" height="24" viewBox="0 0 24 24" fill="none" xmlns="http://www.w3.org/2000/svg">
<path fill-rule="evenodd" clip-rule="evenodd" d="M4 3C2.89543 3 2 3.86278 2 4.92708V19.0691C2 20.8484 4.28907 21.6772 5.50515 20.338L8.40238 17.1476C8.78216 16.7294 9.33081 16.4896 9.90754 16.4896H20C21.1046 16.4896 22 15.6268 22 14.5625V4.92708C22 3.86278 21.1046 3 20 3H4ZM7 12C8.10457 12 9 11.1046 9 10C9 8.89543 8.10457 8 7 8C5.89543 8 5 8.89543 5 10C5 11.1046 5.89543 12 7 12ZM14 10C14 11.1046 13.1046 12 12 12C10.8954 12 10 11.1046 10 10C10 8.89543 10.8954 8 12 8C13.1046 8 14 8.89543 14 10ZM17 12C18.1046 12 19 11.1046 19 10C19 8.89543 18.1046 8 17 8C15.8954 8 15 8.89543 15 10C15 11.1046 15.8954 12 17 12Z" fill="#3E454E"/>
</svg>
