<svg width="24" height="24" viewBox="0 0 24 24" fill="none" xmlns="http://www.w3.org/2000/svg">
<rect width="24" height="24" fill="white"/>
<path d="M9 9.125C9 8.50693 9.17595 7.90275 9.50559 7.38884C9.83524 6.87494 10.3038 6.4744 10.8519 6.23788C11.4001 6.00135 12.0033 5.93947 12.5853 6.06005C13.1672 6.18063 13.7018 6.47825 14.1213 6.91529C14.5409 7.35233 14.8266 7.90915 14.9424 8.51534C15.0581 9.12154 14.9987 9.74987 14.7716 10.3209C14.5446 10.8919 14.1601 11.38 13.6667 11.7233C13.4331 11.886 13.0454 12.0127 12.639 12.101C11.9644 12.2477 11.4 12.8096 11.4 13.5V15" stroke="#3E454E" stroke-width="1.5" stroke-linecap="round"/>
<circle cx="11.45" cy="17.25" r="0.75" fill="#3E454E"/>
<circle cx="12" cy="12" r="9.25" stroke="#3E454E" stroke-width="1.5"/>
</svg>
