<svg width="24" height="24" viewBox="0 0 24 24" fill="none" xmlns="http://www.w3.org/2000/svg">
<rect width="24" height="24" fill="white"/>
<mask id="path-1-inside-1_934_10304" fill="white">
<path fill-rule="evenodd" clip-rule="evenodd" d="M2.5093 10.2317C2.52622 10.7388 2.73522 11.2205 3.09397 11.5793L12.4351 20.9204C13.2162 21.7015 14.4825 21.7015 15.2636 20.9204L20.9204 15.2636C21.7015 14.4825 21.7015 13.2162 20.9204 12.4351L11.5792 3.09397C11.2205 2.73522 10.7388 2.52623 10.2318 2.50929L4.3797 2.31388C3.22329 2.27527 2.27549 3.22304 2.31406 4.37945L2.5093 10.2317ZM7 7.99995C7.55229 7.99995 8 7.55224 8 6.99995C8 6.44767 7.55229 5.99995 7 5.99995C6.44772 5.99995 6 6.44767 6 6.99995C6 7.55224 6.44772 7.99995 7 7.99995Z"/>
</mask>
<path fill-rule="evenodd" clip-rule="evenodd" d="M2.5093 10.2317C2.52622 10.7388 2.73522 11.2205 3.09397 11.5793L12.4351 20.9204C13.2162 21.7015 14.4825 21.7015 15.2636 20.9204L20.9204 15.2636C21.7015 14.4825 21.7015 13.2162 20.9204 12.4351L11.5792 3.09397C11.2205 2.73522 10.7388 2.52623 10.2318 2.50929L4.3797 2.31388C3.22329 2.27527 2.27549 3.22304 2.31406 4.37945L2.5093 10.2317ZM7 7.99995C7.55229 7.99995 8 7.55224 8 6.99995C8 6.44767 7.55229 5.99995 7 5.99995C6.44772 5.99995 6 6.44767 6 6.99995C6 7.55224 6.44772 7.99995 7 7.99995Z" fill="#3E454E"/>
<path d="M3.09397 11.5793L2.03331 12.6399H2.03331L3.09397 11.5793ZM2.5093 10.2317L1.01013 10.2818L2.5093 10.2317ZM12.4351 20.9204L11.3745 21.9811L11.3745 21.9811L12.4351 20.9204ZM15.2636 20.9204L16.3242 21.9811L15.2636 20.9204ZM20.9204 15.2636L19.8597 14.2029L20.9204 15.2636ZM20.9204 12.4351L21.9811 11.3745L20.9204 12.4351ZM11.5792 3.09397L10.5186 4.15463L11.5792 3.09397ZM10.2318 2.50929L10.2818 1.01013L10.2318 2.50929ZM4.3797 2.31388L4.42976 0.814719L4.3797 2.31388ZM2.31406 4.37945L0.814899 4.42947L2.31406 4.37945ZM4.15463 10.5186C4.06495 10.4289 4.0127 10.3085 4.00847 10.1817L1.01013 10.2818C1.03974 11.1691 1.40549 12.0121 2.03331 12.6399L4.15463 10.5186ZM13.4958 19.8598L4.15463 10.5186L2.03331 12.6399L11.3745 21.9811L13.4958 19.8598ZM14.2029 19.8598C14.0076 20.055 13.691 20.055 13.4958 19.8598L11.3745 21.9811C12.7413 23.3479 14.9574 23.3479 16.3242 21.9811L14.2029 19.8598ZM19.8597 14.2029L14.2029 19.8598L16.3242 21.9811L21.9811 16.3242L19.8597 14.2029ZM19.8597 13.4958C20.055 13.6911 20.055 14.0076 19.8597 14.2029L21.9811 16.3242C23.3479 14.9574 23.3479 12.7413 21.9811 11.3745L19.8597 13.4958ZM10.5186 4.15463L19.8597 13.4958L21.9811 11.3745L12.6399 2.03331L10.5186 4.15463ZM10.1817 4.00846C10.3085 4.01269 10.4289 4.06494 10.5186 4.15463L12.6399 2.03331C12.0121 1.40551 11.1692 1.03976 10.2818 1.01013L10.1817 4.00846ZM4.32964 3.81305L10.1817 4.00846L10.2818 1.01013L4.42976 0.814719L4.32964 3.81305ZM3.81323 4.32944C3.80359 4.04034 4.04054 3.80339 4.32964 3.81305L4.42976 0.814719C2.40604 0.747144 0.747387 2.40575 0.814899 4.42947L3.81323 4.32944ZM4.00847 10.1817L3.81323 4.32944L0.814899 4.42947L1.01013 10.2818L4.00847 10.1817ZM6.5 6.99995C6.5 6.72381 6.72386 6.49995 7 6.49995V9.49995C8.38071 9.49995 9.5 8.38066 9.5 6.99995H6.5ZM7 7.49995C6.72386 7.49995 6.5 7.27609 6.5 6.99995H9.5C9.5 5.61924 8.38071 4.49995 7 4.49995V7.49995ZM7.5 6.99995C7.5 7.27609 7.27614 7.49995 7 7.49995V4.49995C5.61929 4.49995 4.5 5.61924 4.5 6.99995H7.5ZM7 6.49995C7.27614 6.49995 7.5 6.72381 7.5 6.99995H4.5C4.5 8.38066 5.61929 9.49995 7 9.49995V6.49995Z" fill="#3E454E" mask="url(#path-1-inside-1_934_10304)"/>
</svg>
