<svg width="24" height="24" viewBox="0 0 24 24" fill="none" xmlns="http://www.w3.org/2000/svg">
<path d="M15.4537 6.70588C15.4537 8.84184 13.7782 10.5294 11.7647 10.5294C9.75118 10.5294 8.07559 8.84184 8.07559 6.70588C8.07559 4.56992 9.75118 2.88235 11.7647 2.88235C13.7782 2.88235 15.4537 4.56992 15.4537 6.70588Z" stroke="#3E454E" stroke-width="1.76471"/>
<path d="M18.8823 18.5C18.8823 19.2667 18.401 19.9085 17.1081 20.3998C15.8102 20.893 13.9372 21.1175 11.7648 21.1175C9.59232 21.1175 7.71931 20.893 6.42126 20.3998C5.12832 19.9085 4.647 19.2666 4.647 18.5C4.647 17.5761 5.31909 16.3257 6.65757 15.2596C7.96443 14.2188 9.77408 13.4705 11.7648 13.4705C13.7555 13.4705 15.565 14.2188 16.8718 15.2596C18.2102 16.3257 18.8823 17.5761 18.8823 18.5Z" stroke="#3E454E" stroke-width="1.76471"/>
</svg>
