<svg width="24" height="24" viewBox="0 0 24 24" fill="none" xmlns="http://www.w3.org/2000/svg">
<rect width="24" height="24" fill="white"/>
<mask id="path-1-inside-1_934_10289" fill="white">
<path fill-rule="evenodd" clip-rule="evenodd" d="M2.42316 11.0917C8.98492 2.08571 14.9967 2.71057 21.5574 11.1075C21.823 11.4475 21.8317 11.9299 21.5789 12.2796C15.0155 21.3621 9.00247 20.7364 2.44013 12.2635C2.17601 11.9225 2.16915 11.4403 2.42316 11.0917ZM14.7857 11.7144C14.7857 13.2529 13.5385 14.5001 12 14.5001C10.4615 14.5001 9.21425 13.2529 9.21425 11.7144C9.21425 10.1759 10.4615 8.92871 12 8.92871C13.5385 8.92871 14.7857 10.1759 14.7857 11.7144ZM16.2857 11.7144C16.2857 14.0814 14.3669 16.0001 12 16.0001C9.63303 16.0001 7.71425 14.0814 7.71425 11.7144C7.71425 9.34749 9.63303 7.42871 12 7.42871C14.3669 7.42871 16.2857 9.34749 16.2857 11.7144Z"/>
</mask>
<path fill-rule="evenodd" clip-rule="evenodd" d="M2.42316 11.0917C8.98492 2.08571 14.9967 2.71057 21.5574 11.1075C21.823 11.4475 21.8317 11.9299 21.5789 12.2796C15.0155 21.3621 9.00247 20.7364 2.44013 12.2635C2.17601 11.9225 2.16915 11.4403 2.42316 11.0917ZM14.7857 11.7144C14.7857 13.2529 13.5385 14.5001 12 14.5001C10.4615 14.5001 9.21425 13.2529 9.21425 11.7144C9.21425 10.1759 10.4615 8.92871 12 8.92871C13.5385 8.92871 14.7857 10.1759 14.7857 11.7144ZM16.2857 11.7144C16.2857 14.0814 14.3669 16.0001 12 16.0001C9.63303 16.0001 7.71425 14.0814 7.71425 11.7144C7.71425 9.34749 9.63303 7.42871 12 7.42871C14.3669 7.42871 16.2857 9.34749 16.2857 11.7144Z" fill="#3E454E"/>
<path d="M21.5574 11.1075L20.3754 12.031L20.3754 12.031L21.5574 11.1075ZM2.42316 11.0917L3.6355 11.975H3.6355L2.42316 11.0917ZM21.5789 12.2796L22.7947 13.1582V13.1582L21.5789 12.2796ZM2.44013 12.2635L3.62603 11.345L3.62603 11.345L2.44013 12.2635ZM22.7394 10.184C19.3987 5.90823 15.8807 3.17213 12.0289 3.07399C8.12359 2.97448 4.57536 5.59056 1.21082 10.2084L3.6355 11.975C6.83272 7.58681 9.57127 6.01234 11.9525 6.07301C14.3871 6.13505 17.1554 7.90984 20.3754 12.031L22.7394 10.184ZM22.7947 13.1582C23.4378 12.2682 23.4169 11.0512 22.7394 10.184L20.3754 12.031C20.2291 11.8438 20.2255 11.5916 20.3632 11.401L22.7947 13.1582ZM1.25423 13.182C4.5936 17.4936 8.1128 20.2559 11.9709 20.3543C15.8828 20.4541 19.4321 17.8114 22.7947 13.1582L20.3632 11.401C17.1624 15.8303 14.4234 17.4159 12.0474 17.3553C9.61751 17.2933 6.849 15.5063 3.62603 11.345L1.25423 13.182ZM1.21082 10.2084C0.564087 11.096 0.580899 12.3127 1.25423 13.182L3.62603 11.345C3.77111 11.5324 3.77422 11.7846 3.6355 11.975L1.21082 10.2084ZM12 16.0001C14.3669 16.0001 16.2857 14.0814 16.2857 11.7144H13.2857C13.2857 12.4245 12.71 13.0001 12 13.0001V16.0001ZM7.71425 11.7144C7.71425 14.0814 9.63303 16.0001 12 16.0001V13.0001C11.2899 13.0001 10.7143 12.4245 10.7143 11.7144H7.71425ZM12 7.42871C9.63303 7.42871 7.71425 9.34749 7.71425 11.7144H10.7143C10.7143 11.0043 11.2899 10.4287 12 10.4287V7.42871ZM16.2857 11.7144C16.2857 9.34749 14.3669 7.42871 12 7.42871V10.4287C12.71 10.4287 13.2857 11.0043 13.2857 11.7144H16.2857ZM12 17.5001C15.1953 17.5001 17.7857 14.9098 17.7857 11.7144H14.7857C14.7857 13.2529 13.5385 14.5001 12 14.5001V17.5001ZM6.21425 11.7144C6.21425 14.9098 8.80461 17.5001 12 17.5001V14.5001C10.4615 14.5001 9.21425 13.2529 9.21425 11.7144H6.21425ZM12 5.92871C8.80461 5.92871 6.21425 8.51906 6.21425 11.7144H9.21425C9.21425 10.1759 10.4615 8.92871 12 8.92871V5.92871ZM17.7857 11.7144C17.7857 8.51906 15.1953 5.92871 12 5.92871V8.92871C13.5385 8.92871 14.7857 10.1759 14.7857 11.7144H17.7857Z" fill="#3E454E" mask="url(#path-1-inside-1_934_10289)"/>
</svg>
