<svg width="24" height="24" viewBox="0 0 24 24" fill="none" xmlns="http://www.w3.org/2000/svg">
<path d="M12 4.75C13.2671 4.75 14.1927 5.12587 14.8893 5.69228C15.598 6.26854 16.1138 7.07892 16.4824 8.00648C17.2257 9.87699 17.3073 12.0614 17.2856 13.2081C17.2723 13.9165 17.5792 14.6219 18.1768 15.0701C18.6808 15.4481 18.4135 16.25 17.7835 16.25H6.21649C5.58655 16.25 5.31924 15.4481 5.82319 15.0701L5.37319 14.4701L5.82319 15.0701C6.42077 14.6219 6.72772 13.9165 6.71437 13.2081C6.69275 12.0614 6.77427 9.87699 7.51757 8.00648C7.88617 7.07891 8.402 6.26854 9.11071 5.69228C9.80731 5.12587 10.7329 4.75 12 4.75Z" stroke="#3E454E" stroke-width="1.5"/>
<ellipse cx="12" cy="19" rx="2" ry="1" fill="#3E454E"/>
</svg>
