<svg width="24" height="24" viewBox="0 0 24 24" fill="none" xmlns="http://www.w3.org/2000/svg">
<mask id="path-1-inside-1_934_9961" fill="white">
<path fill-rule="evenodd" clip-rule="evenodd" d="M22 12C22 17.5228 17.5228 22 12 22C6.47715 22 2 17.5228 2 12C2 6.47715 6.47715 2 12 2C17.5228 2 22 6.47715 22 12ZM11 8C11 7.44772 11.4477 7 12 7C12.5523 7 13 7.44772 13 8C13 8.55228 12.5523 9 12 9C11.4477 9 11 8.55228 11 8ZM12 17C12.5523 17 13 16.5523 13 16V11C13 10.4477 12.5523 10 12 10C11.4477 10 11 10.4477 11 11V16C11 16.5523 11.4477 17 12 17Z"/>
</mask>
<path fill-rule="evenodd" clip-rule="evenodd" d="M22 12C22 17.5228 17.5228 22 12 22C6.47715 22 2 17.5228 2 12C2 6.47715 6.47715 2 12 2C17.5228 2 22 6.47715 22 12ZM11 8C11 7.44772 11.4477 7 12 7C12.5523 7 13 7.44772 13 8C13 8.55228 12.5523 9 12 9C11.4477 9 11 8.55228 11 8ZM12 17C12.5523 17 13 16.5523 13 16V11C13 10.4477 12.5523 10 12 10C11.4477 10 11 10.4477 11 11V16C11 16.5523 11.4477 17 12 17Z" fill="#3E454E"/>
<path d="M12 23.5C18.3513 23.5 23.5 18.3513 23.5 12H20.5C20.5 16.6944 16.6944 20.5 12 20.5V23.5ZM0.5 12C0.5 18.3513 5.64873 23.5 12 23.5V20.5C7.30558 20.5 3.5 16.6944 3.5 12H0.5ZM12 0.5C5.64873 0.5 0.5 5.64873 0.5 12H3.5C3.5 7.30558 7.30558 3.5 12 3.5V0.5ZM23.5 12C23.5 5.64873 18.3513 0.5 12 0.5V3.5C16.6944 3.5 20.5 7.30558 20.5 12H23.5ZM12 5.5C10.6193 5.5 9.5 6.61929 9.5 8H12.5C12.5 8.27614 12.2761 8.5 12 8.5V5.5ZM14.5 8C14.5 6.61929 13.3807 5.5 12 5.5V8.5C11.7239 8.5 11.5 8.27614 11.5 8H14.5ZM12 10.5C13.3807 10.5 14.5 9.38071 14.5 8H11.5C11.5 7.72386 11.7239 7.5 12 7.5V10.5ZM9.5 8C9.5 9.38071 10.6193 10.5 12 10.5V7.5C12.2761 7.5 12.5 7.72386 12.5 8H9.5ZM11.5 16C11.5 15.7239 11.7239 15.5 12 15.5V18.5C13.3807 18.5 14.5 17.3807 14.5 16H11.5ZM11.5 11V16H14.5V11H11.5ZM12 11.5C11.7239 11.5 11.5 11.2761 11.5 11H14.5C14.5 9.61929 13.3807 8.5 12 8.5V11.5ZM12.5 11C12.5 11.2761 12.2761 11.5 12 11.5V8.5C10.6193 8.5 9.5 9.61929 9.5 11H12.5ZM12.5 16V11H9.5V16H12.5ZM12 15.5C12.2761 15.5 12.5 15.7239 12.5 16H9.5C9.5 17.3807 10.6193 18.5 12 18.5V15.5Z" fill="#3E454E" mask="url(#path-1-inside-1_934_9961)"/>
</svg>
