<svg width="24" height="24" viewBox="0 0 24 24" fill="none" xmlns="http://www.w3.org/2000/svg">
<rect width="24" height="24" fill="white"/>
<mask id="path-1-inside-1_934_10295" fill="white">
<path fill-rule="evenodd" clip-rule="evenodd" d="M2.4231 11.5204C8.98486 2.51442 14.9967 3.13928 21.5573 11.5362C21.823 11.8762 21.8316 12.3586 21.5789 12.7083C15.0155 21.7908 9.00241 21.1651 2.44007 12.6923C2.17594 12.3512 2.16909 11.869 2.4231 11.5204ZM14.7856 12.1431C14.7856 13.6816 13.5384 14.9289 11.9999 14.9289C10.4614 14.9289 9.21419 13.6816 9.21419 12.1431C9.21419 10.6046 10.4614 9.35742 11.9999 9.35742C13.5384 9.35742 14.7856 10.6046 14.7856 12.1431ZM16.2856 12.1431C16.2856 14.5101 14.3668 16.4289 11.9999 16.4289C9.63297 16.4289 7.71419 14.5101 7.71419 12.1431C7.71419 9.7762 9.63297 7.85742 11.9999 7.85742C14.3668 7.85742 16.2856 9.7762 16.2856 12.1431Z"/>
</mask>
<path fill-rule="evenodd" clip-rule="evenodd" d="M2.4231 11.5204C8.98486 2.51442 14.9967 3.13928 21.5573 11.5362C21.823 11.8762 21.8316 12.3586 21.5789 12.7083C15.0155 21.7908 9.00241 21.1651 2.44007 12.6923C2.17594 12.3512 2.16909 11.869 2.4231 11.5204ZM14.7856 12.1431C14.7856 13.6816 13.5384 14.9289 11.9999 14.9289C10.4614 14.9289 9.21419 13.6816 9.21419 12.1431C9.21419 10.6046 10.4614 9.35742 11.9999 9.35742C13.5384 9.35742 14.7856 10.6046 14.7856 12.1431ZM16.2856 12.1431C16.2856 14.5101 14.3668 16.4289 11.9999 16.4289C9.63297 16.4289 7.71419 14.5101 7.71419 12.1431C7.71419 9.7762 9.63297 7.85742 11.9999 7.85742C14.3668 7.85742 16.2856 9.7762 16.2856 12.1431Z" fill="#3E454E"/>
<path d="M21.5573 11.5362L20.3753 12.4597L20.3753 12.4597L21.5573 11.5362ZM2.4231 11.5204L3.63544 12.4037H3.63544L2.4231 11.5204ZM21.5789 12.7083L22.7947 13.5869V13.5869L21.5789 12.7083ZM2.44007 12.6923L3.62597 11.7738L3.62597 11.7738L2.44007 12.6923ZM22.7393 10.6127C19.3986 6.33694 15.8807 3.60084 12.0288 3.5027C8.12353 3.40319 4.5753 6.01927 1.21076 10.6371L3.63544 12.4037C6.83266 8.01552 9.57121 6.44105 11.9524 6.50172C14.3871 6.56376 17.1554 8.33855 20.3753 12.4597L22.7393 10.6127ZM22.7947 13.5869C23.4378 12.6969 23.4169 11.4799 22.7393 10.6127L20.3753 12.4597C20.2291 12.2725 20.2254 12.0203 20.3631 11.8297L22.7947 13.5869ZM1.25417 13.6108C4.59354 17.9223 8.11274 20.6846 11.9708 20.783C15.8828 20.8828 19.432 18.2401 22.7947 13.5869L20.3631 11.8297C17.1624 16.259 14.4234 17.8446 12.0473 17.784C9.61745 17.722 6.84894 15.935 3.62597 11.7738L1.25417 13.6108ZM1.21076 10.6371C0.564026 11.5247 0.580838 12.7414 1.25417 13.6108L3.62597 11.7738C3.77105 11.9611 3.77416 12.2133 3.63544 12.4037L1.21076 10.6371ZM11.9999 16.4289C14.3668 16.4289 16.2856 14.5101 16.2856 12.1431H13.2856C13.2856 12.8532 12.71 13.4289 11.9999 13.4289V16.4289ZM7.71419 12.1431C7.71419 14.5101 9.63297 16.4289 11.9999 16.4289V13.4289C11.2898 13.4289 10.7142 12.8532 10.7142 12.1431H7.71419ZM11.9999 7.85742C9.63297 7.85742 7.71419 9.7762 7.71419 12.1431H10.7142C10.7142 11.4331 11.2898 10.8574 11.9999 10.8574V7.85742ZM16.2856 12.1431C16.2856 9.7762 14.3668 7.85742 11.9999 7.85742V10.8574C12.71 10.8574 13.2856 11.4331 13.2856 12.1431H16.2856ZM11.9999 17.9289C15.1953 17.9289 17.7856 15.3385 17.7856 12.1431H14.7856C14.7856 13.6816 13.5384 14.9289 11.9999 14.9289V17.9289ZM6.21419 12.1431C6.21419 15.3385 8.80455 17.9289 11.9999 17.9289V14.9289C10.4614 14.9289 9.21419 13.6816 9.21419 12.1431H6.21419ZM11.9999 6.35742C8.80455 6.35742 6.21419 8.94777 6.21419 12.1431H9.21419C9.21419 10.6046 10.4614 9.35742 11.9999 9.35742V6.35742ZM17.7856 12.1431C17.7856 8.94777 15.1953 6.35742 11.9999 6.35742V9.35742C13.5384 9.35742 14.7856 10.6046 14.7856 12.1431H17.7856Z" fill="#3E454E" mask="url(#path-1-inside-1_934_10295)"/>
<path d="M5 5.00024L19 19" stroke="#3E454E" stroke-width="1.5" stroke-linecap="round"/>
</svg>
