<svg width="24" height="24" viewBox="0 0 24 24" fill="none" xmlns="http://www.w3.org/2000/svg">
<path d="M2.75 4C2.75 3.30964 3.30964 2.75 4 2.75H15.1716C15.5031 2.75 15.821 2.8817 16.0555 3.11612L18.4697 5.53033L20.8839 7.94454C21.1183 8.17896 21.25 8.49691 21.25 8.82843V20C21.25 20.6904 20.6904 21.25 20 21.25H4C3.30964 21.25 2.75 20.6904 2.75 20V4Z" stroke="#3E454E" stroke-width="1.5"/>
<path d="M6.75 16C6.75 15.3096 7.30964 14.75 8 14.75H16C16.6904 14.75 17.25 15.3096 17.25 16V21.25H6.75V16Z" stroke="#3E454E" stroke-width="1.5"/>
<path d="M6.75 2.75H13.25V6C13.25 6.69036 12.6904 7.25 12 7.25H8C7.30964 7.25 6.75 6.69036 6.75 6V2.75Z" stroke="#3E454E" stroke-width="1.5"/>
</svg>
