<svg width="24" height="24" viewBox="0 0 24 24" fill="none" xmlns="http://www.w3.org/2000/svg">
<mask id="path-1-inside-1_1005_7164" fill="white">
<path fill-rule="evenodd" clip-rule="evenodd" d="M12 22C17.5228 22 22 17.5228 22 12C22 6.47715 17.5228 2 12 2C6.47715 2 2 6.47715 2 12C2 17.5228 6.47715 22 12 22ZM14.9447 16.0409C15.1846 15.866 15.1995 15.5234 14.9999 15.3037C14.8004 15.0839 14.4622 15.0711 14.2172 15.2388C13.734 15.5696 13.1808 15.7894 12.5975 15.8793C11.8363 15.9965 11.0575 15.8872 10.358 15.565C9.65849 15.2428 9.06922 14.722 8.66359 14.0674C8.55099 13.8856 8.45392 13.6959 8.37293 13.5H11C11.2761 13.5 11.5 13.2761 11.5 13C11.5 12.7239 11.2761 12.5 11 12.5H8.10697C8.08083 12.2964 8.07058 12.0903 8.07673 11.8834C8.08055 11.7548 8.09068 11.6269 8.10697 11.5H11C11.2761 11.5 11.5 11.2761 11.5 11C11.5 10.7239 11.2761 10.5 11 10.5H8.37293C8.48349 10.2326 8.62383 9.97701 8.79223 9.73817C9.23603 9.10877 9.85518 8.62384 10.5726 8.34376C11.29 8.06368 12.0739 8.00084 12.8268 8.16306C13.4037 8.28738 13.9429 8.53966 14.4056 8.89861C14.6402 9.08055 14.9786 9.08783 15.1908 8.8803C15.4031 8.67277 15.4086 8.32988 15.1795 8.14111C14.5651 7.63489 13.8365 7.28096 13.0532 7.11218C12.0942 6.90553 11.0955 6.98558 10.1816 7.34237C9.26775 7.69916 8.47902 8.31691 7.91367 9.11869C7.61427 9.54331 7.38453 10.0096 7.2303 10.5H6.47742C6.20127 10.5 5.97742 10.7239 5.97742 11C5.97742 11.2761 6.20127 11.5 6.47742 11.5H7.02506C7.01334 11.6166 7.0057 11.7338 7.00221 11.8515C6.99575 12.0687 7.00349 12.2853 7.02506 12.5H6.47742C6.20127 12.5 5.97742 12.7239 5.97742 13C5.97742 13.2761 6.20127 13.5 6.47742 13.5H7.2303C7.35484 13.896 7.52884 14.277 7.74979 14.6336C8.26653 15.4675 9.01718 16.131 9.90826 16.5414C10.7993 16.9519 11.7915 17.0911 12.7611 16.9417C13.553 16.8198 14.3013 16.5097 14.9447 16.0409Z"/>
</mask>
<path fill-rule="evenodd" clip-rule="evenodd" d="M12 22C17.5228 22 22 17.5228 22 12C22 6.47715 17.5228 2 12 2C6.47715 2 2 6.47715 2 12C2 17.5228 6.47715 22 12 22ZM14.9447 16.0409C15.1846 15.866 15.1995 15.5234 14.9999 15.3037C14.8004 15.0839 14.4622 15.0711 14.2172 15.2388C13.734 15.5696 13.1808 15.7894 12.5975 15.8793C11.8363 15.9965 11.0575 15.8872 10.358 15.565C9.65849 15.2428 9.06922 14.722 8.66359 14.0674C8.55099 13.8856 8.45392 13.6959 8.37293 13.5H11C11.2761 13.5 11.5 13.2761 11.5 13C11.5 12.7239 11.2761 12.5 11 12.5H8.10697C8.08083 12.2964 8.07058 12.0903 8.07673 11.8834C8.08055 11.7548 8.09068 11.6269 8.10697 11.5H11C11.2761 11.5 11.5 11.2761 11.5 11C11.5 10.7239 11.2761 10.5 11 10.5H8.37293C8.48349 10.2326 8.62383 9.97701 8.79223 9.73817C9.23603 9.10877 9.85518 8.62384 10.5726 8.34376C11.29 8.06368 12.0739 8.00084 12.8268 8.16306C13.4037 8.28738 13.9429 8.53966 14.4056 8.89861C14.6402 9.08055 14.9786 9.08783 15.1908 8.8803C15.4031 8.67277 15.4086 8.32988 15.1795 8.14111C14.5651 7.63489 13.8365 7.28096 13.0532 7.11218C12.0942 6.90553 11.0955 6.98558 10.1816 7.34237C9.26775 7.69916 8.47902 8.31691 7.91367 9.11869C7.61427 9.54331 7.38453 10.0096 7.2303 10.5H6.47742C6.20127 10.5 5.97742 10.7239 5.97742 11C5.97742 11.2761 6.20127 11.5 6.47742 11.5H7.02506C7.01334 11.6166 7.0057 11.7338 7.00221 11.8515C6.99575 12.0687 7.00349 12.2853 7.02506 12.5H6.47742C6.20127 12.5 5.97742 12.7239 5.97742 13C5.97742 13.2761 6.20127 13.5 6.47742 13.5H7.2303C7.35484 13.896 7.52884 14.277 7.74979 14.6336C8.26653 15.4675 9.01718 16.131 9.90826 16.5414C10.7993 16.9519 11.7915 17.0911 12.7611 16.9417C13.553 16.8198 14.3013 16.5097 14.9447 16.0409Z" fill="#3E454E"/>
<path d="M14.9447 16.0409L15.8281 17.2531L15.8281 17.2531L14.9447 16.0409ZM14.2172 15.2388L13.3699 14.001L13.3699 14.001L14.2172 15.2388ZM12.5975 15.8793L12.8258 17.3618H12.8258L12.5975 15.8793ZM10.358 15.565L10.9855 14.2026H10.9855L10.358 15.565ZM8.66359 14.0674L9.93865 13.2773L9.93865 13.2773L8.66359 14.0674ZM8.37293 13.5V12H6.12939L6.98679 14.0732L8.37293 13.5ZM8.10697 12.5L6.6192 12.6911L6.78731 14H8.10697V12.5ZM8.07673 11.8834L9.57607 11.928V11.928L8.07673 11.8834ZM8.10697 11.5V10H6.7873L6.61919 11.3089L8.10697 11.5ZM8.37293 10.5L6.98679 9.92676L6.1294 12H8.37293V10.5ZM8.79223 9.73817L10.0181 10.6026L10.0181 10.6026L8.79223 9.73817ZM10.5726 8.34376L10.0271 6.94647L10.5726 8.34376ZM12.8268 8.16306L12.5108 9.62941H12.5108L12.8268 8.16306ZM14.4056 8.89861L13.4863 10.0839L13.4863 10.0839L14.4056 8.89861ZM15.1908 8.8803L14.1422 7.80775L14.1422 7.80775L15.1908 8.8803ZM15.1795 8.14111L16.1333 6.98345L16.1333 6.98345L15.1795 8.14111ZM13.0532 7.11218L12.7372 8.57853L13.0532 7.11218ZM10.1816 7.34237L10.7271 8.73966L10.1816 7.34237ZM7.91367 9.11869L9.13957 9.98308H9.13957L7.91367 9.11869ZM7.2303 10.5V12H8.331L8.66121 10.95L7.2303 10.5ZM7.02506 11.5L8.51754 11.65L8.68336 10H7.02506V11.5ZM7.00221 11.8515L5.50287 11.8069V11.8069L7.00221 11.8515ZM7.02506 12.5V14H8.68337L8.51754 12.35L7.02506 12.5ZM7.2303 13.5L8.66121 13.05L8.33101 12H7.2303V13.5ZM7.74979 14.6336L9.02485 13.8435L9.02485 13.8435L7.74979 14.6336ZM9.90826 16.5414L9.28074 17.9039H9.28074L9.90826 16.5414ZM12.7611 16.9417L12.9894 18.4243L12.7611 16.9417ZM20.5 12C20.5 16.6944 16.6944 20.5 12 20.5V23.5C18.3513 23.5 23.5 18.3513 23.5 12H20.5ZM12 3.5C16.6944 3.5 20.5 7.30558 20.5 12H23.5C23.5 5.64873 18.3513 0.5 12 0.5V3.5ZM3.5 12C3.5 7.30558 7.30558 3.5 12 3.5V0.5C5.64873 0.5 0.5 5.64873 0.5 12H3.5ZM12 20.5C7.30558 20.5 3.5 16.6944 3.5 12H0.5C0.5 18.3513 5.64873 23.5 12 23.5V20.5ZM13.8895 16.3121C13.5651 15.9548 13.4921 15.2434 14.0613 14.8286L15.8281 17.2531C16.8772 16.4887 16.8339 15.092 16.1104 14.2953L13.8895 16.3121ZM15.0646 16.4765C14.7977 16.6592 14.2758 16.7375 13.8895 16.3121L16.1104 14.2953C15.325 13.4303 14.1266 13.483 13.3699 14.001L15.0646 16.4765ZM12.8258 17.3618C13.632 17.2376 14.3966 16.9338 15.0646 16.4765L13.3699 14.001C13.0713 14.2054 12.7295 14.3412 12.3691 14.3967L12.8258 17.3618ZM9.73046 16.9275C10.6973 17.3728 11.7737 17.5238 12.8258 17.3618L12.3691 14.3967C11.8989 14.4692 11.4177 14.4017 10.9855 14.2026L9.73046 16.9275ZM7.38852 14.8574C7.94918 15.7623 8.76364 16.4821 9.73046 16.9275L10.9855 14.2026C10.5533 14.0035 10.1893 13.6817 9.93865 13.2773L7.38852 14.8574ZM6.98679 14.0732C7.09874 14.344 7.23291 14.6063 7.38852 14.8574L9.93865 13.2773C9.86907 13.165 9.80911 13.0477 9.75907 12.9268L6.98679 14.0732ZM11 12H8.37293V15H11V12ZM10 13C10 12.4477 10.4477 12 11 12V15C12.1046 15 13 14.1046 13 13H10ZM11 14C10.4477 14 10 13.5523 10 13H13C13 11.8954 12.1046 11 11 11V14ZM8.10697 14H11V11H8.10697V14ZM6.57739 11.8389C6.5689 12.1248 6.58306 12.4097 6.6192 12.6911L9.59475 12.3089C9.5786 12.1832 9.57227 12.0558 9.57607 11.928L6.57739 11.8389ZM6.61919 11.3089C6.59667 11.4843 6.58268 11.6611 6.57739 11.8389L9.57607 11.928C9.57843 11.8485 9.58469 11.7694 9.59475 11.6911L6.61919 11.3089ZM11 10H8.10697V13H11V10ZM10 11C10 10.4477 10.4477 10 11 10V13C12.1046 13 13 12.1046 13 11H10ZM11 12C10.4477 12 10 11.5523 10 11H13C13 9.89543 12.1046 9 11 9V12ZM8.37293 12H11V9H8.37293V12ZM7.56634 8.87378C7.33358 9.20388 7.13961 9.55723 6.98679 9.92676L9.75907 11.0732C9.82738 10.9081 9.91408 10.7501 10.0181 10.6026L7.56634 8.87378ZM10.0271 6.94647C9.0355 7.33358 8.17974 8.00385 7.56634 8.87378L10.0181 10.6026C10.2923 10.2137 10.6749 9.91409 11.1181 9.74105L10.0271 6.94647ZM13.1427 6.69672C12.1022 6.4725 11.0186 6.55936 10.0271 6.94647L11.1181 9.74105C11.5613 9.56801 12.0457 9.52918 12.5108 9.62941L13.1427 6.69672ZM15.325 7.71337C14.6854 7.21725 13.9402 6.86855 13.1427 6.69672L12.5108 9.62941C12.8672 9.70621 13.2004 9.86208 13.4863 10.0839L15.325 7.71337ZM14.1422 7.80775C14.5531 7.40599 15.0695 7.51518 15.325 7.71336L13.4863 10.0839C14.2109 10.6459 15.404 10.7697 16.2395 9.95284L14.1422 7.80775ZM14.2256 9.29878C13.682 8.85089 13.7972 8.14507 14.1422 7.80775L16.2395 9.95285C17.009 9.20047 17.1351 7.80888 16.1333 6.98345L14.2256 9.29878ZM12.7372 8.57853C13.2855 8.69667 13.7955 8.94441 14.2256 9.29878L16.1333 6.98345C15.3346 6.32536 14.3874 5.86525 13.3692 5.64584L12.7372 8.57853ZM10.7271 8.73966C11.3669 8.48991 12.0659 8.43387 12.7372 8.57853L13.3692 5.64584C12.1224 5.37719 10.8242 5.48126 9.63611 5.94508L10.7271 8.73966ZM9.13957 9.98308C9.53531 9.42184 10.0874 8.98941 10.7271 8.73966L9.63611 5.94508C8.44807 6.4089 7.42272 7.21198 6.68778 8.2543L9.13957 9.98308ZM8.66121 10.95C8.76917 10.6067 8.92999 10.2803 9.13957 9.98308L6.68778 8.2543C6.29855 8.8063 5.99988 9.41251 5.7994 10.05L8.66121 10.95ZM6.47742 12H7.2303V9H6.47742V12ZM7.47742 11C7.47742 11.5523 7.0297 12 6.47742 12V9C5.37285 9 4.47742 9.89543 4.47742 11H7.47742ZM6.47742 10C7.0297 10 7.47742 10.4477 7.47742 11H4.47742C4.47742 12.1046 5.37285 13 6.47742 13V10ZM7.02506 10H6.47742V13H7.02506V10ZM8.50154 11.896C8.50399 11.8137 8.50934 11.7316 8.51754 11.65L5.53258 11.35C5.51735 11.5016 5.50741 11.654 5.50287 11.8069L8.50154 11.896ZM8.51754 12.35C8.50244 12.1998 8.49702 12.0481 8.50154 11.896L5.50287 11.8069C5.49448 12.0893 5.50453 12.3709 5.53258 12.65L8.51754 12.35ZM6.47742 14H7.02506V11H6.47742V14ZM7.47742 13C7.47742 13.5523 7.0297 14 6.47742 14V11C5.37285 11 4.47742 11.8954 4.47742 13H7.47742ZM6.47742 12C7.0297 12 7.47742 12.4477 7.47742 13H4.47742C4.47742 14.1046 5.37285 15 6.47742 15V12ZM7.2303 12H6.47742V15H7.2303V12ZM9.02485 13.8435C8.87019 13.5939 8.74839 13.3272 8.66121 13.05L5.79939 13.95C5.96129 14.4648 6.1875 14.9601 6.47473 15.4236L9.02485 13.8435ZM10.5358 15.179C9.91203 14.8917 9.38657 14.4273 9.02485 13.8435L6.47473 15.4236C7.14649 16.5078 8.12233 17.3703 9.28074 17.9039L10.5358 15.179ZM12.5328 15.4592C11.854 15.5637 11.1595 15.4663 10.5358 15.179L9.28074 17.9039C10.4391 18.4374 11.7289 18.6184 12.9894 18.4243L12.5328 15.4592ZM14.0613 14.8286C13.6109 15.1568 13.0871 15.3738 12.5328 15.4592L12.9894 18.4243C14.0189 18.2657 14.9918 17.8626 15.8281 17.2531L14.0613 14.8286Z" fill="#3E454E" mask="url(#path-1-inside-1_1005_7164)"/>
</svg>
