<svg width="24" height="24" viewBox="0 0 24 24" fill="none" xmlns="http://www.w3.org/2000/svg">
<path d="M11.0753 2.642C11.4202 1.786 12.5798 1.786 12.9247 2.642L14.9764 7.73415C15.1213 8.09359 15.4447 8.33938 15.8162 8.37238L21.08 8.83999C21.9649 8.91859 22.3232 10.0722 21.6515 10.6799L17.6558 14.2946C17.3737 14.5497 17.2502 14.9474 17.335 15.3273L18.5365 20.7084C18.7384 21.613 17.8003 22.326 17.0403 21.8455L12.519 18.9874C12.1999 18.7856 11.8001 18.7856 11.481 18.9874L6.95972 21.8455C6.1997 22.326 5.26156 21.613 5.46352 20.7084L6.66499 15.3273C6.74979 14.9474 6.62626 14.5497 6.34421 14.2946L2.34846 10.6799C1.67677 10.0722 2.03511 8.91859 2.91996 8.83999L8.18376 8.37238C8.55531 8.33938 8.87873 8.09359 9.02355 7.73415L11.0753 2.642Z" fill="#3E454E"/>
</svg>
