<svg width="24" height="24" viewBox="0 0 24 24" fill="none" xmlns="http://www.w3.org/2000/svg">
<rect width="24" height="24" fill="white"/>
<path d="M2 10.0644C2 8.99545 2.89543 8.12887 4 8.12887H6.39445C6.7893 8.12887 7.17531 8.01576 7.50385 7.8038L12.8906 4.32833C14.2197 3.47081 16 4.39289 16 5.93882V18.0612C16 19.6071 14.2197 20.5292 12.8906 19.6717L7.50385 16.1962C7.17531 15.9842 6.7893 15.8711 6.39445 15.8711H4C2.89543 15.8711 2 15.0045 2 13.9356V10.0644Z" fill="#3E454E"/>
<path d="M17 9.7864C17 9.36685 17.3454 9.01729 17.7516 9.12241C18.2655 9.25541 18.7396 9.52366 19.1213 9.90542C19.6839 10.468 20 11.2311 20 12.0267C20 12.8224 19.6839 13.5855 19.1213 14.1481C18.7396 14.5298 18.2655 14.7981 17.7516 14.9311C17.3454 15.0362 17 14.6866 17 14.2671C17 13.8475 17.3612 13.5227 17.7268 13.3168C17.8431 13.2513 17.951 13.1698 18.047 13.0738C18.3247 12.7961 18.4807 12.4194 18.4807 12.0267C18.4807 11.634 18.3247 11.2574 18.047 10.9797C17.951 10.8837 17.8431 10.8022 17.7268 10.7367C17.3612 10.5308 17 10.2059 17 9.7864Z" fill="#3E454E"/>
<path d="M17 7.75814C17 7.33933 17.3414 6.99392 17.7554 7.0572C18.8019 7.21713 19.7778 7.70654 20.5355 8.46428C21.4732 9.40197 22 10.6737 22 11.9998C22 13.3259 21.4732 14.5977 20.5355 15.5354C19.7778 16.2931 18.8019 16.7825 17.7554 16.9424C17.3414 17.0057 17 16.6603 17 16.2415C17 15.8227 17.3434 15.4914 17.7524 15.401C18.3953 15.2587 18.9902 14.9358 19.4631 14.4629C20.1164 13.8097 20.4834 12.9237 20.4834 11.9998C20.4834 11.076 20.1164 10.19 19.4631 9.53671C18.9902 9.06379 18.3953 8.7409 17.7524 8.59866C17.3434 8.5082 17 8.17694 17 7.75814Z" fill="#3E454E"/>
</svg>
