<svg width="24" height="24" viewBox="0 0 24 24" fill="none" xmlns="http://www.w3.org/2000/svg">
<rect width="24" height="24" fill="white"/>
<path d="M3.26555 17.2106L10.9835 12.5812C11.1236 12.4971 11.25 12.2929 11.25 12C11.25 11.7071 11.1236 11.5029 10.9835 11.4188L3.26554 6.78945C3.17099 6.73274 3.08603 6.73588 2.98785 6.80867C2.87559 6.8919 2.75 7.08011 2.75 7.37061L2.75 16.6294C2.75 16.9199 2.87559 17.1081 2.98785 17.1913C3.08603 17.2641 3.171 17.2673 3.26555 17.2106Z" stroke="#3E454E" stroke-width="1.5"/>
<path d="M13.2655 17.2106L20.9835 12.5812C21.1236 12.4971 21.25 12.2929 21.25 12C21.25 11.7071 21.1236 11.5029 20.9835 11.4188L13.2655 6.78945C13.171 6.73274 13.086 6.73588 12.9878 6.80867C12.8756 6.8919 12.75 7.08011 12.75 7.37061L12.75 16.6294C12.75 16.9199 12.8756 17.1081 12.9878 17.1913C13.086 17.2641 13.171 17.2673 13.2655 17.2106Z" stroke="#3E454E" stroke-width="1.5"/>
</svg>
