<svg width="24" height="24" viewBox="0 0 24 24" fill="none" xmlns="http://www.w3.org/2000/svg">
<rect width="24" height="24" fill="white"/>
<path fill-rule="evenodd" clip-rule="evenodd" d="M21 9H3V21H21V9ZM6 11.5264C5.44772 11.5264 5 11.9741 5 12.5264C5 13.0787 5.44772 13.5264 6 13.5264C6.55228 13.5264 7 13.0787 7 12.5264C7 11.9741 6.55228 11.5264 6 11.5264ZM8 12.5264C8 11.9741 8.44772 11.5264 9 11.5264C9.55228 11.5264 10 11.9741 10 12.5264C10 13.0787 9.55228 13.5264 9 13.5264C8.44772 13.5264 8 13.0787 8 12.5264ZM12 11.5264C11.4477 11.5264 11 11.9741 11 12.5264C11 13.0787 11.4477 13.5264 12 13.5264C12.5523 13.5264 13 13.0787 13 12.5264C13 11.9741 12.5523 11.5264 12 11.5264ZM14 12.5264C14 11.9741 14.4477 11.5264 15 11.5264C15.5523 11.5264 16 11.9741 16 12.5264C16 13.0787 15.5523 13.5264 15 13.5264C14.4477 13.5264 14 13.0787 14 12.5264ZM18 11.5264C17.4477 11.5264 17 11.9741 17 12.5264C17 13.0787 17.4477 13.5264 18 13.5264C18.5523 13.5264 19 13.0787 19 12.5264C19 11.9741 18.5523 11.5264 18 11.5264ZM5 15.5264C5 14.9741 5.44772 14.5264 6 14.5264C6.55228 14.5264 7 14.9741 7 15.5264C7 16.0787 6.55228 16.5264 6 16.5264C5.44772 16.5264 5 16.0787 5 15.5264ZM9 14.5264C8.44772 14.5264 8 14.9741 8 15.5264C8 16.0787 8.44772 16.5264 9 16.5264C9.55228 16.5264 10 16.0787 10 15.5264C10 14.9741 9.55228 14.5264 9 14.5264ZM11 15.5264C11 14.9741 11.4477 14.5264 12 14.5264C12.5523 14.5264 13 14.9741 13 15.5264C13 16.0787 12.5523 16.5264 12 16.5264C11.4477 16.5264 11 16.0787 11 15.5264ZM15 14.5264C14.4477 14.5264 14 14.9741 14 15.5264C14 16.0787 14.4477 16.5264 15 16.5264C15.5523 16.5264 16 16.0787 16 15.5264C16 14.9741 15.5523 14.5264 15 14.5264ZM17 15.5264C17 14.9741 17.4477 14.5264 18 14.5264C18.5523 14.5264 19 14.9741 19 15.5264C19 16.0787 18.5523 16.5264 18 16.5264C17.4477 16.5264 17 16.0787 17 15.5264ZM6 17.5264C5.44772 17.5264 5 17.9741 5 18.5264C5 19.0787 5.44772 19.5264 6 19.5264C6.55228 19.5264 7 19.0787 7 18.5264C7 17.9741 6.55228 17.5264 6 17.5264ZM8 18.5264C8 17.9741 8.44772 17.5264 9 17.5264C9.55228 17.5264 10 17.9741 10 18.5264C10 19.0787 9.55228 19.5264 9 19.5264C8.44772 19.5264 8 19.0787 8 18.5264ZM12 17.5264C11.4477 17.5264 11 17.9741 11 18.5264C11 19.0787 11.4477 19.5264 12 19.5264C12.5523 19.5264 13 19.0787 13 18.5264C13 17.9741 12.5523 17.5264 12 17.5264ZM14 18.5264C14 17.9741 14.4477 17.5264 15 17.5264C15.5523 17.5264 16 17.9741 16 18.5264C16 19.0787 15.5523 19.5264 15 19.5264C14.4477 19.5264 14 19.0787 14 18.5264ZM18 17.5264C17.4477 17.5264 17 17.9741 17 18.5264C17 19.0787 17.4477 19.5264 18 19.5264C18.5523 19.5264 19 19.0787 19 18.5264C19 17.9741 18.5523 17.5264 18 17.5264Z" fill="#3E454E"/>
<path d="M6 4.89478H5C3.89543 4.89478 3 5.79021 3 6.89478V9.98065V19C3 20.1046 3.89543 21 5 21H19C20.1046 21 21 20.1046 21 19V9.98065V6.89478C21 5.79021 20.1046 4.89478 19 4.89478H18M10 4.89478H14" stroke="#3E454E" stroke-width="1.5"/>
<rect x="7" y="3" width="2" height="3.78947" rx="1" fill="#3E454E"/>
<rect x="15" y="3" width="2" height="3.78947" rx="1" fill="#3E454E"/>
<line x1="3" y1="8.88159" x2="21" y2="8.88159" stroke="#3E454E" stroke-width="1.5"/>
</svg>
