<svg width="24" height="24" viewBox="0 0 24 24" fill="none" xmlns="http://www.w3.org/2000/svg">
<path d="M19 20H5C3.89543 20 3 19.1046 3 18V10C3 8.89543 3.89543 8 5 8H19C20.1046 8 21 8.89543 21 10V18C21 19.1046 20.1046 20 19 20Z" stroke="#3E454E" stroke-width="1.5" stroke-linejoin="round"/>
<path d="M4 8.28904L14.4309 4.56083C15.3399 4.23594 16.3512 4.60667 16.8349 5.44209L18 7.45458" stroke="#3E454E" stroke-width="1.5" stroke-linecap="round" stroke-linejoin="round"/>
<path d="M21.0162 11.9899L17.0162 11.9755C15.9116 11.9715 15.013 12.8637 15.009 13.9683V13.9683C15.0051 15.0728 15.8973 15.9715 17.0018 15.9755L21.0018 15.9898" stroke="#3E454E" stroke-width="1.5"/>
</svg>
