<svg width="24" height="24" viewBox="0 0 24 24" fill="none" xmlns="http://www.w3.org/2000/svg">
<path fill-rule="evenodd" clip-rule="evenodd" d="M9.42856 4C9.42856 2.89543 10.324 2 11.4286 2H13.4286C14.5331 2 15.4286 2.89543 15.4286 4V5.67363C15.7707 5.83615 16.0975 6.02561 16.4064 6.23926L17.8568 5.40186C18.8134 4.84957 20.0366 5.17732 20.5888 6.13391L21.5888 7.86596C22.1411 8.82254 21.8134 10.0457 20.8568 10.598L19.4061 11.4355C19.421 11.6217 19.4286 11.81 19.4286 12C19.4286 12.19 19.421 12.3783 19.4061 12.5645L20.8567 13.402C21.8133 13.9543 22.1411 15.1775 21.5888 16.134L20.5888 17.8661C20.0365 18.8227 18.8133 19.1504 17.8567 18.5981L16.4063 17.7608C16.0975 17.9744 15.7707 18.1638 15.4286 18.3264V20C15.4286 21.1046 14.5331 22 13.4286 22H11.4286C10.324 22 9.42856 21.1046 9.42856 20V18.3264C9.08641 18.1638 8.75954 17.9744 8.45068 17.7607L7.00038 18.598C6.0438 19.1503 4.82062 18.8225 4.26833 17.866L3.26833 16.1339C2.71605 15.1773 3.0438 13.9541 4.00038 13.4019L5.45098 12.5644C5.43613 12.3782 5.42856 12.19 5.42856 12C5.42856 11.81 5.43613 11.6218 5.45098 11.4357L4.00033 10.5981C3.04375 10.0459 2.716 8.82268 3.26828 7.86609L4.26828 6.13404C4.82057 5.17746 6.04375 4.84971 7.00033 5.40199L8.45066 6.23934C8.75952 6.02566 9.0864 5.83617 9.42856 5.67363V4ZM12.4286 16C14.6377 16 16.4286 14.2091 16.4286 12C16.4286 9.79086 14.6377 8 12.4286 8C10.2194 8 8.42859 9.79086 8.42859 12C8.42859 14.2091 10.2194 16 12.4286 16Z" fill="#3E454E"/>
</svg>
