<svg width="24" height="24" viewBox="0 0 24 24" fill="none" xmlns="http://www.w3.org/2000/svg">
<path d="M3 9.25L14.4154 4.63995C15.3279 4.27143 16.3729 4.62155 16.8793 5.46545L19 9" stroke="#3E454E" stroke-width="1.5" stroke-linecap="round" stroke-linejoin="round"/>
<path fill-rule="evenodd" clip-rule="evenodd" d="M4 20H20C21.1046 20 22 19.1046 22 18V15.979L21.9973 16.7398L17.9973 16.7254C16.4785 16.72 15.2517 15.4844 15.2572 13.9656C15.2627 12.4468 16.4983 11.22 18.0171 11.2255L22 11.2398V10C22 8.89543 21.1046 8 20 8H4C2.89543 8 2 8.89543 2 10V18C2 19.1046 2.89543 20 4 20ZM22 12.7398L18.0117 12.7255C17.3213 12.723 16.7597 13.2806 16.7572 13.971C16.7547 14.6613 17.3123 15.223 18.0027 15.2255L22 15.2398V12.7398Z" fill="#3E454E"/>
</svg>
