<svg width="24" height="24" viewBox="0 0 24 24" fill="none" xmlns="http://www.w3.org/2000/svg">
<path d="M12 4.99994L11.4815 5.54189L12 6.03787L12.5185 5.54188L12 4.99994ZM12 4.99994L12.5185 5.54185L12.5185 5.54181L12.5187 5.54168L12.5192 5.54121L12.521 5.53946L12.5279 5.53285L12.5539 5.50793L12.6475 5.41775C12.7257 5.34226 12.8324 5.2388 12.946 5.12733C13.1616 4.91579 13.4377 4.64101 13.5686 4.48883C14.5078 3.39686 15.6442 2.86084 16.73 2.82862C17.8084 2.79662 18.9238 3.25825 19.8469 4.33147C21.7177 6.50644 21.7177 10.0729 19.8469 12.2479L12.1965 21.1424C12.1202 21.2311 12.0472 21.2499 12 21.2499C11.9529 21.2499 11.8798 21.2311 11.8036 21.1424L4.91829 13.1375L4.91821 13.1374L4.15315 12.2476L4.15307 12.2475C2.28231 10.0726 2.28231 6.50611 4.15307 4.33114C5.07616 3.25794 6.19151 2.7964 7.26993 2.82847C8.35575 2.86077 9.49215 3.39687 10.4314 4.48886C10.5623 4.64105 10.8384 4.91582 11.054 5.12735C11.1676 5.23882 11.2743 5.34227 11.3525 5.41777L11.4462 5.50794L11.4721 5.53286L11.479 5.53948L11.4809 5.54122L11.4813 5.54169L11.4815 5.54182L11.4815 5.54186L12 4.99994Z" stroke="#3E454E" stroke-width="1.5"/>
</svg>
