<svg width="24" height="24" viewBox="0 0 24 24" fill="none" xmlns="http://www.w3.org/2000/svg">
<circle cx="12" cy="12" r="9.25" stroke="#3E454E" stroke-width="1.5"/>
<mask id="path-2-inside-1_1005_7165" fill="white">
<path d="M14.9999 15.3037C15.1995 15.5234 15.1846 15.866 14.9447 16.0409C14.3013 16.5097 13.553 16.8198 12.7611 16.9417C11.7915 17.0911 10.7993 16.9519 9.90826 16.5414C9.01718 16.131 8.26653 15.4675 7.74979 14.6336C7.23305 13.7996 6.97307 12.8321 7.00221 11.8515C7.03135 10.8709 7.34833 9.92048 7.91367 9.11869C8.47902 8.31691 9.26775 7.69916 10.1816 7.34237C11.0955 6.98558 12.0942 6.90553 13.0532 7.11218C13.8365 7.28096 14.5651 7.63489 15.1795 8.14111C15.4086 8.32988 15.4031 8.67277 15.1908 8.8803C14.9786 9.08783 14.6402 9.08055 14.4056 8.89861C13.9429 8.53966 13.4037 8.28738 12.8268 8.16306C12.0739 8.00084 11.29 8.06368 10.5726 8.34376C9.85518 8.62384 9.23603 9.10877 8.79223 9.73817C8.34844 10.3676 8.09961 11.1136 8.07673 11.8834C8.05386 12.6532 8.25795 13.4127 8.66359 14.0674C9.06922 14.722 9.65849 15.2428 10.358 15.565C11.0575 15.8872 11.8363 15.9965 12.5975 15.8793C13.1808 15.7894 13.734 15.5696 14.2172 15.2388C14.4622 15.0711 14.8004 15.0839 14.9999 15.3037Z"/>
</mask>
<path d="M14.9999 15.3037C15.1995 15.5234 15.1846 15.866 14.9447 16.0409C14.3013 16.5097 13.553 16.8198 12.7611 16.9417C11.7915 17.0911 10.7993 16.9519 9.90826 16.5414C9.01718 16.131 8.26653 15.4675 7.74979 14.6336C7.23305 13.7996 6.97307 12.8321 7.00221 11.8515C7.03135 10.8709 7.34833 9.92048 7.91367 9.11869C8.47902 8.31691 9.26775 7.69916 10.1816 7.34237C11.0955 6.98558 12.0942 6.90553 13.0532 7.11218C13.8365 7.28096 14.5651 7.63489 15.1795 8.14111C15.4086 8.32988 15.4031 8.67277 15.1908 8.8803C14.9786 9.08783 14.6402 9.08055 14.4056 8.89861C13.9429 8.53966 13.4037 8.28738 12.8268 8.16306C12.0739 8.00084 11.29 8.06368 10.5726 8.34376C9.85518 8.62384 9.23603 9.10877 8.79223 9.73817C8.34844 10.3676 8.09961 11.1136 8.07673 11.8834C8.05386 12.6532 8.25795 13.4127 8.66359 14.0674C9.06922 14.722 9.65849 15.2428 10.358 15.565C11.0575 15.8872 11.8363 15.9965 12.5975 15.8793C13.1808 15.7894 13.734 15.5696 14.2172 15.2388C14.4622 15.0711 14.8004 15.0839 14.9999 15.3037Z" fill="#D9D9D9" stroke="#3E454E" stroke-width="3" mask="url(#path-2-inside-1_1005_7165)"/>
<path d="M6.47742 11H11" stroke="#3E454E" stroke-linecap="round"/>
<path d="M6.47742 13H11" stroke="#3E454E" stroke-linecap="round"/>
</svg>
