<svg width="24" height="24" viewBox="0 0 24 24" fill="none" xmlns="http://www.w3.org/2000/svg">
<rect width="24" height="24" fill="white"/>
<path fill-rule="evenodd" clip-rule="evenodd" d="M22 12C22 17.5228 17.5228 22 12 22C6.47715 22 2 17.5228 2 12C2 6.47715 6.47715 2 12 2C17.5228 2 22 6.47715 22 12ZM12.4331 6.79445C12.0028 6.70529 11.5564 6.75074 11.1491 6.92651C10.7413 7.10245 10.3878 7.40259 10.1369 7.79378C9.88575 8.18528 9.75 8.64862 9.75 9.125C9.75 9.53921 9.41421 9.875 9 9.875C8.58579 9.875 8.25 9.53921 8.25 9.125C8.25 8.36525 8.46614 7.62021 8.8743 6.9839C9.28266 6.3473 9.86623 5.84635 10.5548 5.54924C11.2438 5.25197 12.0038 5.17365 12.7374 5.32565C13.4708 5.4776 14.14 5.85181 14.6624 6.39589C15.1844 6.93965 15.5366 7.62879 15.679 8.37467C15.8215 9.12044 15.7486 9.89375 15.4686 10.598C15.1884 11.3025 14.7121 11.9095 14.0952 12.3389C13.7329 12.5911 13.2211 12.742 12.7984 12.8339C12.3834 12.9241 12.15 13.2428 12.15 13.5V15C12.15 15.4142 11.8142 15.75 11.4 15.75C10.9858 15.75 10.65 15.4142 10.65 15V13.5C10.65 12.3765 11.5455 11.5712 12.4797 11.3681C12.8698 11.2833 13.1333 11.1808 13.2383 11.1078C13.608 10.8504 13.9007 10.4813 14.0747 10.0438C14.2488 9.60599 14.2948 9.12263 14.2057 8.65602C14.1166 8.18951 13.8974 7.76502 13.5803 7.43469C13.2635 7.10469 12.8636 6.88366 12.4331 6.79445ZM11.45 18C11.8642 18 12.2 17.6642 12.2 17.25C12.2 16.8358 11.8642 16.5 11.45 16.5C11.0358 16.5 10.7 16.8358 10.7 17.25C10.7 17.6642 11.0358 18 11.45 18Z" fill="#3E454E"/>
</svg>
