<svg width="24" height="24" viewBox="0 0 24 24" fill="none" xmlns="http://www.w3.org/2000/svg">
<path d="M8 10L12 6L16 10" stroke="#3E454E" stroke-width="1.5" stroke-linecap="round" stroke-linejoin="round"/>
<path d="M12 6L12 15" stroke="#3E454E" stroke-width="1.5" stroke-linecap="round"/>
<path d="M5 15.75C5 15.3358 5.33579 15 5.75 15C6.16421 15 6.5 15.3358 6.5 15.75V17C6.5 17.2761 6.72386 17.5 7 17.5H12H17C17.2761 17.5 17.5 17.2761 17.5 17V15.75C17.5 15.3358 17.8358 15 18.25 15C18.6642 15 19 15.3358 19 15.75V17C19 18.1046 18.1046 19 17 19H7C5.89543 19 5 18.1046 5 17V15.75Z" fill="#3E454E"/>
</svg>
